<svg width="113" height="72" viewBox="0 0 113 72" fill="none" xmlns="http://www.w3.org/2000/svg">
<g clip-path="url(#clip0_1_259)">
<path d="M51.1164 28.6259L51.0371 32.441C51.0239 32.8796 50.6672 33.2252 50.2312 33.2252C45.0653 33.1056 39.9786 32.6404 34.8258 33.1722C32.8969 33.3715 32.342 33.1455 32.3816 31.7498C32.4477 29.0513 32.3684 26.3528 32.4212 23.6544C32.4477 22.4314 32.7516 21.2084 33.3065 20.0519C32.6327 20.8495 31.7871 21.7003 30.7301 22.6972C29.6071 23.7872 27.797 23.9468 26.1323 23.9468C23.1463 23.9468 20.504 22.5111 18.8392 20.3045C19.4866 22.3782 19.3677 24.226 18.7864 26.3129C17.769 30.0217 13.6336 33.0924 9.81534 33.1722C7.13327 33.2386 4.45126 33.1455 1.76921 33.2252C0.381935 33.2519 0.368713 32.7202 0.355501 30.7661C0.28944 21.3414 1.10859 12.5946 0.685803 3.0901C0.566895 0.684079 0.395144 -0.166679 1.84847 0.112473C7.63538 1.24238 11.0573 6.51969 9.35295 12.1825C8.91694 13.6315 9.82853 14.2563 10.793 14.2563C11.5064 14.2563 12.2068 14.3625 12.7617 14.4955C13.4355 14.6417 14.4925 15.0804 15.1266 15.519C16.0911 16.1572 16.8574 16.9414 17.452 17.6991C17.1217 16.7553 16.9499 15.7584 16.9499 14.6949C16.9499 12.8339 17.3198 10.9728 18.4429 9.64356C20.6493 7.05143 22.0498 5.46956 26.1323 5.46956C28.0348 5.46956 29.0786 5.42966 31.2586 7.05142C33.465 8.67316 35.0372 11.1323 35.2619 14.0303C35.2355 13.8308 35.1958 13.6315 35.1562 13.4188C34.707 10.9064 33.0026 9.03208 30.8886 7.98194C28.9464 7.03813 28.1141 7.21093 26.6212 7.49008C23.4106 8.07498 22.5519 9.52391 21.1777 11.89C20.4907 13.0864 20.4643 14.6151 20.7285 16.0641C21.4684 20.0786 25.2868 22.7239 29.2768 21.9927C30.598 21.7535 31.9853 21.3679 32.7251 20.3444C34.3766 18.0314 35.2883 16.6622 35.3016 14.788C35.2883 15.9178 35.1165 16.8484 34.7731 17.6858C35.9753 16.2102 37.574 15.0538 39.3048 14.5752C41.4715 13.9771 43.3873 13.8973 45.554 14.655C46.611 15.0139 48.3154 16.0641 49.597 17.7789L49.6631 17.8719C50.1123 18.5233 50.7993 19.7595 50.9314 20.4109C51.4731 22.9498 51.1164 27.1372 51.1164 28.6259Z" fill="#333333"/>
<path d="M35.285 14.7218C35.285 14.4958 35.259 14.2831 35.246 14.0571C35.272 14.2831 35.285 14.5091 35.285 14.7218Z" fill="#333333"/>
<path d="M70.4081 28.9586C70.4213 27.483 70.8574 23.2559 70.0382 20.8366C69.84 20.2517 69.338 18.8825 68.902 18.2577L69.2587 18.7629C67.9507 16.7689 66.0482 15.9181 64.9119 15.5327C62.7584 14.7883 60.869 14.5091 58.7155 15.1073C55.0293 16.1309 51.9905 20.1985 51.9112 24.0402C51.8583 26.6988 51.9376 29.3706 51.8716 32.0293C51.832 33.4118 52.3737 33.5314 54.2894 33.425C65.2422 32.8667 64.4231 33.3586 69.5361 33.4782C69.959 33.4915 70.3157 33.1459 70.3289 32.7072L70.4081 28.9586Z" fill="#333333"/>
<path d="M90.1707 19.8394C90.184 19.9325 90.1972 20.0255 90.1972 20.1185V48.2464C90.1972 48.5523 89.9461 48.8048 89.629 48.8048H86.8941C86.392 48.8048 85.9957 48.3927 85.9957 47.8876V33.2121V33.2254C85.1502 33.8502 84.2385 34.3287 83.274 34.5946C81.1072 35.1927 79.1914 35.2726 77.0114 34.5282C75.9281 34.1426 74.1709 33.0393 72.8761 31.2448C72.4137 30.5669 71.7795 29.3971 71.6342 28.7856C71.0792 26.2466 71.436 22.0859 71.4492 20.5838L71.5284 16.782C71.5284 16.3434 71.8983 15.9978 72.3344 15.9978C77.5004 16.1174 82.587 16.5959 87.7397 16.0509C89.6687 15.8515 90.2236 16.0775 90.184 17.4732C90.184 18.2443 90.1707 19.0418 90.1707 19.8394Z" fill="#333333"/>
<path d="M72.9817 31.4045C72.942 31.3513 72.9156 31.2982 72.876 31.245C72.7967 31.1254 72.7042 31.019 72.625 30.8994L72.9817 31.4045Z" fill="#333333"/>
<path d="M88.2435 53.0053C86.3013 51.6361 85.3633 51.6626 83.6722 51.6626C81.7961 51.6626 80.5541 52.0082 79.5236 52.6862C83.9496 51.1708 87.3716 51.995 90.0007 54.6669C89.5119 54.0289 88.9041 53.4838 88.2435 53.0053Z" fill="#333333"/>
<path d="M112.657 61.5393C112.419 57.4186 108.587 54.1884 104.73 53.0984C100.806 52.0216 96.9212 53.4041 94.4902 56.7141C94.0014 57.3787 93.6975 58.2294 92.7859 58.6947C91.9799 57.0995 91.0683 55.757 90.0377 54.6935C91.1476 56.0229 91.8214 57.6844 91.8214 59.5188C91.8214 62.4167 90.553 63.746 87.7652 66.3249C86.7611 67.2554 85.1625 67.375 83.6563 67.375C79.1378 67.375 75.478 63.8657 75.478 59.5188C75.478 57.937 75.8215 56.3418 76.8124 55.2253C77.7636 54.1485 78.53 53.2845 79.5077 52.6729C79.1641 52.7926 78.8074 52.9256 78.4507 53.0717C80.4325 48.0868 79.9305 43.8066 75.914 40.5497C72.7034 37.9576 68.9776 37.6918 65.4764 39.8053C60.2444 42.9558 59.8877 47.7811 61.8166 53.218C61.3278 52.9388 60.8126 52.7394 60.2973 52.5932C58.1041 51.9684 56.1618 51.8753 53.9686 52.6464C52.8192 53.0452 50.9035 54.2548 49.5823 56.2754C49.2388 56.7805 48.882 57.5382 48.6838 58.1895C48.5781 58.3623 48.5121 58.5351 48.4724 58.7346C48.3536 59.2928 48.3139 59.6916 48.3139 60.3962C48.3139 61.3932 47.6929 62.3104 46.2528 61.8717C44.205 61.2469 42.1967 61.4197 40.4395 62.1641C40.4263 62.1641 40.4131 62.1775 40.3998 62.1775C37.3347 63.2409 34.9564 65.966 34.2562 69.6747C34.1637 70.1134 34.1373 70.4324 34.1901 70.6584C34.0448 71.7616 34.4808 71.8547 36.6476 71.7616C46.0943 71.3363 55.3427 71.8415 64.7233 71.775C66.6654 71.7616 67.2073 71.7484 67.1676 70.3526C67.1676 70.2196 67.1544 70.0602 67.1676 69.9272C67.1147 67.3617 67.1807 64.8228 67.1147 62.2705C67.128 62.0711 67.1147 61.8584 67.1147 61.6591C67.0751 59.7582 66.322 57.7775 65.1065 56.1425L65.701 56.6742C67.5904 57.3787 69.0437 57.5515 70.5367 57.5382C72.0164 57.5382 73.4169 57.0198 74.9099 56.5413C73.2716 62.6825 74.1964 66.923 78.0543 69.2626C83.8809 72.7985 88.5976 70.8179 92.3894 65.3146C92.8783 67.2287 92.7198 68.7575 92.7066 70.2463C92.6933 71.3097 92.9576 71.775 94.1467 71.775C99.8543 71.7484 104.597 71.7085 110.318 71.775C112.379 71.775 112.749 68.6777 112.657 61.5393ZM72.8223 54.9726C68.5681 55.7569 64.4723 52.8458 63.6796 48.499C63.3889 46.8906 63.4021 45.2422 64.142 43.9394C65.5953 41.3606 66.5069 39.7921 69.9421 39.154C71.5276 38.8616 72.4128 38.6755 74.4871 39.7123C76.7595 40.8422 78.5828 42.9026 79.0717 45.641C79.6133 48.5522 78.5432 50.8385 76.4954 53.1914C75.5969 54.2017 74.2229 54.7068 72.8223 54.9726Z" fill="#333333"/>
</g>
<defs>
<clipPath id="clip0_1_259">
<rect width="112.836" height="72" fill="white"/>
</clipPath>
</defs>
</svg>
