<svg preserveAspectRatio="none" width="100%" height="100%" overflow="visible" style="display: block;" viewBox="0 0 347 58" fill="none" xmlns="http://www.w3.org/2000/svg">
<path id="Vector 3" d="M41.7733 8.33408C45.3168 7.21562 51.2279 10.3483 57 8.33408C61.5 6.7638 64.2654 4.51299 69.5 5.23129C72.8114 5.68568 76.7509 6.56695 81.4852 5.15057C84.9394 4.11714 91 5.98119 97.5 3.70903C101.892 2.17384 106.415 3.27426 112.25 5.08711C115.703 6.16004 119.039 4.80841 122.308 3.70903C125.266 2.71406 128.175 2.91571 133 3.70903C139.5 4.77774 144.09 2.23998 148.5 1.66292C154.5 0.877778 160.5 3.23326 165 3.23326H165.002C169.501 3.23326 172.103 3.23326 176.647 1.66292C180.457 0.346273 186.895 1.33487 188.479 1.70299C190.26 2.11682 192.252 3.28789 194.91 3.7184C200.649 4.64767 206.181 1.43727 209.5 2.84063C216 5.58862 223.533 3.68101 227.862 3.56799C230.3 3.50434 236.5 5.85322 243 5.9815C248.339 6.08687 254.548 3.84278 259 4.41122C265.149 5.19636 267.04 6.98821 273.5 7.55179C278 7.94436 281 6.69477 285 6.37407C294.537 5.60947 295.219 9.91916 303 9.90721L303.251 9.90681C307.671 9.89952 309.897 9.89586 312.876 11.3167C315.464 12.5511 316.775 13.8724 321.5 14.6181C324.424 15.0794 330.256 14.5656 333.196 18.0275C336.361 21.7557 338.866 23.247 339.811 23.6198C342.801 24.7993 342.925 25.3413 344.537 26.6024C345.214 27.1325 346.227 29.7779 345.954 31.4491C345.674 33.162 343.454 35.5501 341.701 37.0414C339.561 38.8627 335.558 39.6512 331.778 40.7696C327.976 41.8946 325.777 44.3315 323.272 45.0848C317.602 46.7903 318.013 46.3441 309.5 46.8088C304.575 47.0777 301.516 49.7694 298 50.463C294.22 51.2086 289.5 49.4358 281.5 51.1271C274.4 52.6282 272 54.3759 260.5 53.4825C256.548 53.1755 246.357 52.0626 244.245 52.7829C241.054 53.8709 239.121 54.6605 232.658 54.8348C228.134 54.9568 219.51 53.0895 214.54 53.9834C209.248 54.9353 207.88 56.5695 199.5 55.8377C195.606 55.4976 188.672 55.601 184.673 56.6228C180.162 57.7754 174.728 56.0113 172.102 55.0077C169.677 54.0811 165.471 55.1539 160.223 56.0286C152.883 57.2521 149.66 55.2332 146.621 54.6314C142.273 53.7707 138.819 55.8395 132.836 56.2834C127.916 56.6484 122.587 53.8186 116.997 53.6517C114.413 53.5746 111.933 54.7266 105.192 55.1003C100.772 55.3454 94.4607 51.5395 87.2376 52.668C77 54.2674 72.2284 51.7405 69.7875 51.1865C65.1562 50.1352 60.6728 51.8587 58 51.912C54.491 51.982 50 50.3417 47.1142 49.6774C46 49.4209 41.2716 49.1909 40.357 49.1741C30.0251 49.1741 33.2688 44.5415 24.5214 45.6163C19.6227 46.2182 18.7654 41.3434 14.8382 40.5992C13.4012 40.3269 4.64557 39.9269 3.96973 35.923C3.02579 30.3306 -0.367468 28.9109 1.60702 25.4839C3.96984 21.3829 6.13774 20.7589 12.4768 18.0275C17.5548 15.8394 18.8615 12.3985 25.7081 11.3167C30.2781 10.5945 32.3237 11.3167 41.7733 8.33408Z" stroke="var(--stroke-0, #333333)" stroke-width="1.5" stroke-linecap="round"/>
</svg>
