<svg preserveAspectRatio="none" width="100%" height="100%" overflow="visible" style="display: block;" viewBox="0 0 32 32" fill="none" xmlns="http://www.w3.org/2000/svg">
<path id="Ellipse 1" opacity="0" d="M74 0.5C94.39 0.5 112.828 3.62833 126.149 8.66895C132.812 11.1899 138.169 14.1793 141.852 17.4736C145.534 20.7683 147.5 24.3266 147.5 28C147.5 31.6734 145.534 35.2317 141.852 38.5264C138.169 41.8207 132.812 44.8101 126.149 47.3311C112.828 52.3717 94.39 55.5 74 55.5C53.61 55.5 35.1722 52.3717 21.8506 47.3311C15.1882 44.8101 9.83098 41.8207 6.14844 38.5264C2.46552 35.2317 0.5 31.6734 0.5 28C0.5 24.3266 2.46552 20.7683 6.14844 17.4736C9.83098 14.1793 15.1882 11.1899 21.8506 8.66895C35.1722 3.62833 53.61 0.5 74 0.5Z" stroke="var(--stroke-0, #333333)"/>
</svg>
