<svg preserveAspectRatio="none" width="100%" height="100%" overflow="visible" style="display: block;" viewBox="0 0 143 58" fill="none" xmlns="http://www.w3.org/2000/svg">
<path id="Vector 2" d="M79.7083 54.5128C72.3894 55.2232 67.7646 58.5286 61.149 56.1544C54.5334 53.7803 46.9726 54.5128 40.357 54.5128C30.0251 54.5128 33.2688 48.6125 24.5214 49.9814C19.6227 50.7481 18.7654 44.5393 14.8382 43.5914C13.4012 43.2446 4.64556 42.7351 3.96973 37.6354C3.02579 30.5127 -0.367468 28.7046 1.60702 24.3397C3.96984 19.1164 6.13774 18.3216 12.4768 14.8427C17.5548 12.0559 18.8615 7.67341 25.7081 6.29549C30.2781 5.37572 32.3237 6.29549 41.7733 2.49669C45.3168 1.07216 48.8628 4.44162 55.0059 2.97153C59.2588 1.95377 63.5117 2.02186 68.2372 2.97153C71.4841 3.62405 78.9472 0.491635 82.4136 1.07216C90.2271 2.38075 91.1713 3.89091 98.9527 3.87569C103.541 3.86671 105.841 4.45198 108.876 6.29549C111.464 7.86773 111.711 8.66972 116.437 9.61942C119.361 10.207 126.256 10.4335 129.196 14.8427C132.361 19.5912 134.866 21.4906 135.811 21.9654C138.801 23.4677 138.925 24.1581 140.537 25.7642C141.214 26.4393 142.227 29.8087 141.954 31.9372C141.674 34.119 139.454 37.1606 137.701 39.06C135.561 41.3796 131.558 42.3839 127.778 43.8084C123.976 45.2413 121.777 48.345 119.272 49.3044C113.602 51.4767 113.738 50.3392 105.226 50.9311C100.301 51.2736 96.9284 53.6295 93.4122 54.5128C89.6318 55.4626 89.7708 53.5363 79.7083 54.5128Z" stroke="var(--stroke-0, #333333)" stroke-width="1.5" stroke-linecap="round"/>
</svg>
