<svg width="14" height="12" viewBox="0 0 14 12" fill="none" xmlns="http://www.w3.org/2000/svg">
<path d="M1.11377 2.28384C3.10673 0.692595 5.91055 0.184737 8.33936 0.827789L8.57275 0.894196L9.01123 1.0397C10.0244 1.41315 10.9744 2.02106 11.6763 2.8942L11.8345 3.10123C12.5983 4.15312 12.9316 5.44253 12.8979 6.72818C12.8583 8.37455 11.9284 9.66869 10.6763 10.4762C9.42815 11.2811 7.83529 11.6206 6.40869 11.3522C5.01534 11.0913 3.66144 10.1382 3.47314 8.52603V8.52505C3.3189 7.17644 3.959 5.75195 5.01611 4.95181L5.22119 4.80826C5.71088 4.49328 6.27862 4.31178 6.86768 4.3024L7.15088 4.31216C7.82338 4.36918 8.56178 4.65933 9.02295 5.19205C9.29401 5.50564 9.37575 5.86708 9.31689 6.21451C9.25974 6.55127 9.07497 6.85905 8.84131 7.1022L8.84033 7.10123C8.32591 7.63753 7.61393 7.95232 6.92432 8.08853L6.90771 8.10806L6.78857 8.1188C6.78178 8.11944 6.69181 8.1317 6.61084 8.12564C6.56971 8.12254 6.50179 8.11344 6.43311 8.07877C6.35465 8.039 6.26635 7.9593 6.23877 7.82974V7.82877C6.20785 7.68272 6.27436 7.56807 6.33643 7.50552C6.39102 7.45055 6.45409 7.42041 6.49072 7.40494C6.56788 7.37236 6.65036 7.35631 6.67041 7.3522L6.6792 7.35123C6.97415 7.30025 7.25827 7.19301 7.52783 7.04459C7.73446 6.92406 7.95752 6.76066 8.11475 6.57095C8.27114 6.38221 8.34166 6.19594 8.31494 6.01041V6.00943C8.28511 5.79709 8.12804 5.59862 7.86572 5.43033C7.60715 5.26456 7.28882 5.15752 7.03662 5.1149C6.56254 5.03573 6.11278 5.18865 5.71729 5.4899C5.31891 5.79339 4.99122 6.23768 4.78271 6.69498L4.78174 6.69595C4.33333 7.67205 4.34673 8.85451 5.0249 9.64615L5.17529 9.8063C5.9586 10.5714 7.18367 10.7857 8.30518 10.5836C9.49308 10.3696 10.6571 9.66775 11.3149 8.65103C11.9622 7.65061 12.0067 6.35665 11.6978 5.16568L11.6431 4.97037C11.0331 2.97646 9.25087 1.74975 7.17529 1.43521L7.17432 1.43423C5.16436 1.12543 3.00784 1.69212 1.50635 3.09244L1.21436 3.38443C1.1642 3.43768 1.10634 3.46664 1.06982 3.48209C1.02936 3.4992 0.988031 3.51042 0.95166 3.51822C0.879345 3.53371 0.799966 3.54094 0.728027 3.53873C0.6718 3.53698 0.561735 3.52868 0.467285 3.47232C0.414419 3.44073 0.315157 3.36158 0.30127 3.21646C0.288342 3.08063 0.360761 2.98606 0.397949 2.94595L0.399902 2.944C0.623154 2.70836 0.860937 2.48613 1.11279 2.28384H1.11377Z" fill="black" stroke="black" stroke-width="0.6"/>
</svg>
