<svg width="52" height="48" viewBox="0 0 52 48" fill="none" xmlns="http://www.w3.org/2000/svg">
<path d="M2.75008 0.0801333L1.21327 0L0.485308 0.0801333L0.323539 0.320534L0.16177 1.04174V3.36561L0.323539 8.17362V18.3506L0.242654 21.7162L0 30.0501V47.2788L0.404423 47.7596L0.889731 48H13.6695L15.2873 47.8398L17.0667 47.439L18.2799 47.0384L19.6549 46.3973L21.5153 45.1953L22.8903 44.1536L24.0227 43.0317L24.5081 42.8715L24.6699 42.631L25.0742 41.99L25.5596 41.2688L26.3684 39.7462L26.8538 38.5442L27.339 36.7813L27.5817 35.419L27.7435 33.3356L27.5817 31.4124L27.2581 29.6494L27.5817 30.1302L28.3905 30.9315L29.0375 31.4925L29.8464 32.2137L30.5744 32.7746L31.7068 33.4157L32.8391 33.8965L34.0525 34.2972L36.5599 34.4574H39.6335L42.2218 34.2972L42.5454 34.2171L43.7586 33.6561L44.5675 33.0951L45.1337 32.374L47.0749 30.4508L47.9646 29.4892L50.7147 25.4023L50.7956 25.0017L51.2 23.0785V21.8765V20.7438L51.1191 19.793V19.2321L50.7147 17.389L50.3911 16.8281L49.9868 15.626L49.4206 14.5042L48.4499 13.1419L47.7219 12.2605L46.8322 11.379L45.9425 10.6578L44.9718 9.85643L44.2439 9.29549L43.0306 8.65442L40.8467 8.09349L39.1482 7.93323H37.2069L35.9128 8.01336L34.4569 8.25376L32.3539 8.73456L30.9789 9.45576L30.3317 9.93657L29.9274 10.3373L29.1185 11.0585L27.9861 12.2605L27.4199 12.9015L26.6919 13.7028L25.8022 14.8247L25.1551 16.0267L24.6699 17.5492L24.4272 19.0718L24.2654 21.1553L24.3462 22.5977L24.5081 23.7997L24.8316 25.242H24.7507L24.0227 24.4407L23.3757 23.8798L22.5668 23.1586L21.4345 22.3572L19.8167 21.4758L18.4417 20.995L16.824 20.6745L14.8828 20.5142L13.8313 20.1937L13.5077 20.0334L13.3459 19.7129L13.0224 18.9917V18.1102L13.1034 17.7897L13.4269 16.9082L13.7504 14.8247V12.1002L13.5077 10.4975L13.1034 9.05509L12.2135 7.21202L11.4857 6.01002L10.6768 4.96828L10.0297 4.16694L9.5444 3.60601L8.25024 2.56428L7.27962 1.92321L6.38989 1.4424L4.36778 0.480801L2.75008 0.0801333Z" fill="#333333"/>
</svg>
