<svg width="347" height="58" viewBox="0 0 347 58" fill="none" xmlns="http://www.w3.org/2000/svg">
<path d="M147.058 34.878C146.375 34.878 145.773 34.718 145.25 34.398C144.727 34.0673 144.322 33.6087 144.034 33.022C143.746 32.4247 143.602 31.742 143.602 30.974H145.442C145.442 31.6567 145.591 32.206 145.89 32.622C146.189 33.0273 146.578 33.23 147.058 33.23H148.338C148.829 33.23 149.218 33.0167 149.506 32.59C149.805 32.1527 149.954 31.5713 149.954 30.846V23.55H151.826V30.91C151.826 31.71 151.682 32.4087 151.394 33.006C151.117 33.6033 150.717 34.0673 150.194 34.398C149.682 34.718 149.085 34.878 148.402 34.878H147.058ZM156.749 34.878C155.768 34.878 154.979 34.5953 154.381 34.03C153.784 33.454 153.485 32.6967 153.485 31.758V29.774C153.485 29.1553 153.619 28.6113 153.885 28.142C154.163 27.662 154.547 27.294 155.037 27.038C155.539 26.7713 156.115 26.638 156.765 26.638H158.173C158.824 26.638 159.395 26.7713 159.885 27.038C160.387 27.294 160.771 27.662 161.037 28.142C161.315 28.6113 161.453 29.1553 161.453 29.774V31.758C161.453 32.6967 161.149 33.454 160.541 34.03C159.944 34.5953 159.144 34.878 158.141 34.878H156.749ZM158.125 33.294C158.573 33.294 158.931 33.1447 159.197 32.846C159.475 32.5367 159.613 32.1367 159.613 31.646V29.87C159.613 29.3793 159.48 28.9847 159.213 28.686C158.947 28.3767 158.589 28.222 158.141 28.222H156.797C156.349 28.222 155.992 28.3767 155.725 28.686C155.459 28.9847 155.325 29.3793 155.325 29.87V31.646C155.325 32.1367 155.459 32.5367 155.725 32.846C155.992 33.1447 156.339 33.294 156.765 33.294H158.125ZM164.38 25.87C164.018 25.87 163.724 25.7633 163.5 25.55C163.287 25.326 163.18 25.0433 163.18 24.702C163.18 24.3607 163.287 24.0833 163.5 23.87C163.724 23.646 164.018 23.534 164.38 23.534C164.743 23.534 165.036 23.646 165.26 23.87C165.484 24.0833 165.596 24.3607 165.596 24.702C165.596 25.0433 165.484 25.326 165.26 25.55C165.036 25.7633 164.743 25.87 164.38 25.87ZM163.468 26.766H165.308V34.75H163.468V26.766ZM167.649 26.766H169.361V27.806C169.596 27.454 169.905 27.1713 170.289 26.958C170.673 26.7447 171.057 26.638 171.441 26.638H172.433C173.254 26.638 173.91 26.8993 174.401 27.422C174.902 27.9447 175.153 28.6327 175.153 29.486V34.75H173.313V29.534C173.313 29.15 173.212 28.8407 173.009 28.606C172.817 28.3607 172.561 28.238 172.241 28.238H171.249C170.833 28.238 170.46 28.398 170.129 28.718C169.798 29.0273 169.585 29.4273 169.489 29.918V34.75H167.649V26.766ZM185.363 34.878C184.616 34.878 183.955 34.718 183.379 34.398C182.803 34.0673 182.355 33.6087 182.035 33.022C181.726 32.4247 181.571 31.7367 181.571 30.958V23.55H183.443V30.926C183.443 31.6193 183.619 32.1793 183.971 32.606C184.323 33.022 184.787 33.23 185.363 33.23H187.075C187.662 33.23 188.131 33.022 188.483 32.606C188.846 32.1793 189.027 31.6193 189.027 30.926V23.55H190.899V30.958C190.899 31.7367 190.739 32.4247 190.419 33.022C190.099 33.6087 189.651 34.0673 189.075 34.398C188.499 34.718 187.832 34.878 187.075 34.878H185.363ZM195.586 34.878C194.669 34.878 193.933 34.6327 193.378 34.142C192.823 33.6513 192.546 33.0007 192.546 32.19H194.354C194.354 32.5313 194.466 32.8087 194.69 33.022C194.914 33.2247 195.213 33.326 195.586 33.326H197.01C197.373 33.326 197.655 33.2673 197.858 33.15C198.071 33.022 198.178 32.8513 198.178 32.638V32.286C198.178 32.1367 198.114 32.0087 197.986 31.902C197.869 31.7953 197.703 31.7207 197.49 31.678L194.722 31.198C194.103 31.0913 193.613 30.8673 193.25 30.526C192.887 30.174 192.706 29.7687 192.706 29.31V28.782C192.706 28.1207 192.967 27.598 193.49 27.214C194.023 26.83 194.754 26.638 195.682 26.638H196.962C197.805 26.638 198.487 26.8673 199.01 27.326C199.533 27.7847 199.794 28.3873 199.794 29.134H197.986C197.986 28.846 197.89 28.6167 197.698 28.446C197.517 28.2753 197.271 28.19 196.962 28.19H195.698C195.325 28.19 195.037 28.2487 194.834 28.366C194.631 28.4833 194.53 28.6487 194.53 28.862V29.182C194.53 29.3313 194.589 29.4593 194.706 29.566C194.834 29.6727 194.999 29.742 195.202 29.774L198.066 30.286C198.653 30.4033 199.122 30.6273 199.474 30.958C199.826 31.2887 200.002 31.678 200.002 32.126V32.718C200.002 33.3793 199.73 33.9073 199.186 34.302C198.642 34.686 197.917 34.878 197.01 34.878H195.586Z" fill="#333333"/>
<path d="M41.5233 8.08408C45.0668 6.96562 50.9779 10.0983 56.75 8.08408C61.25 6.5138 64.0154 4.26299 69.25 4.98129C72.5614 5.43568 76.5009 6.31695 81.2352 4.90057C84.6894 3.86714 90.75 5.73119 97.25 3.45903C101.642 1.92384 106.166 3.02426 112 4.83711C115.453 5.91004 118.789 4.55841 122.058 3.45903C125.016 2.46406 127.925 2.66571 132.75 3.45903C139.25 4.52774 143.84 1.98998 148.25 1.41292C154.25 0.627778 160.25 2.98326 164.75 2.98326H164.752C169.251 2.98326 171.853 2.98326 176.397 1.41292C180.207 0.0962726 186.645 1.08487 188.229 1.45299C190.01 1.86682 192.002 3.03789 194.66 3.4684C200.399 4.39767 205.931 1.18727 209.25 2.59063C215.75 5.33862 223.283 3.43101 227.612 3.31799C230.05 3.25434 236.25 5.60322 242.75 5.7315C248.089 5.83687 254.298 3.59278 258.75 4.16122C264.899 4.94636 266.79 6.73821 273.25 7.30179C277.75 7.69436 280.75 6.44477 284.75 6.12407C294.287 5.35947 294.969 9.66916 302.75 9.65721L303.001 9.65681C307.421 9.64952 309.647 9.64586 312.626 11.0667C315.214 12.3011 316.525 13.6224 321.25 14.3681C324.174 14.8294 330.006 14.3156 332.946 17.7775C336.111 21.5057 338.616 22.997 339.561 23.3698C342.551 24.5493 342.675 25.0913 344.287 26.3524C344.964 26.8825 345.977 29.5279 345.704 31.1991C345.424 32.912 343.204 35.3001 341.451 36.7914C339.311 38.6127 335.308 39.4012 331.528 40.5196C327.726 41.6446 325.527 44.0815 323.022 44.8348C317.352 46.5403 317.763 46.0941 309.25 46.5588C304.325 46.8277 301.266 49.5194 297.75 50.213C293.97 50.9586 289.25 49.1858 281.25 50.8771C274.15 52.3782 271.75 54.1259 260.25 53.2325C256.298 52.9255 246.107 51.8126 243.995 52.5329C240.804 53.6209 238.871 54.4105 232.408 54.5848C227.884 54.7068 219.26 52.8395 214.29 53.7334C208.998 54.6853 207.63 56.3195 199.25 55.5877C195.356 55.2476 188.422 55.351 184.423 56.3728C179.912 57.5254 174.478 55.7613 171.852 54.7577C169.427 53.8311 165.221 54.9039 159.973 55.7786C152.633 57.0021 149.41 54.9832 146.371 54.3814C142.023 53.5207 138.569 55.5895 132.586 56.0334C127.667 56.3984 122.337 53.5686 116.747 53.4017C114.163 53.3246 111.683 54.4766 104.942 54.8503C100.522 55.0954 94.2107 51.2895 86.9876 52.418C76.75 54.0174 71.9784 51.4905 69.5375 50.9365C64.9063 49.8852 60.4228 51.6087 57.75 51.662C54.241 51.732 49.75 50.0917 46.8642 49.4274C45.75 49.1709 41.0216 48.9409 40.107 48.9241C29.7751 48.9241 33.0188 44.2915 24.2714 45.3663C19.3727 45.9682 18.5154 41.0934 14.5882 40.3492C13.1512 40.0769 4.39558 39.6769 3.71974 35.673C2.7758 30.0806 -0.617456 28.6609 1.35703 25.2339C3.71985 21.1329 5.88775 20.5089 12.2268 17.7775C17.3048 15.5894 18.6115 12.1485 25.4581 11.0667C30.0282 10.3445 32.0737 11.0667 41.5233 8.08408Z" stroke="#333333" stroke-width="1.5" stroke-linecap="round"/>
</svg>
