<svg width="143" height="58" viewBox="0 0 143 58" fill="none" xmlns="http://www.w3.org/2000/svg">
<path d="M46.058 34.878C45.3753 34.878 44.7727 34.718 44.25 34.398C43.7273 34.0673 43.322 33.6087 43.034 33.022C42.746 32.4247 42.602 31.742 42.602 30.974H44.442C44.442 31.6567 44.5913 32.206 44.89 32.622C45.1887 33.0273 45.578 33.23 46.058 33.23H47.338C47.8287 33.23 48.218 33.0167 48.506 32.59C48.8047 32.1527 48.954 31.5713 48.954 30.846V23.55H50.826V30.91C50.826 31.71 50.682 32.4087 50.394 33.006C50.1167 33.6033 49.7167 34.0673 49.194 34.398C48.682 34.718 48.0847 34.878 47.402 34.878H46.058ZM55.7493 34.878C54.7679 34.878 53.9786 34.5953 53.3813 34.03C52.7839 33.454 52.4853 32.6967 52.4853 31.758V29.774C52.4853 29.1553 52.6186 28.6113 52.8853 28.142C53.1626 27.662 53.5466 27.294 54.0373 27.038C54.5386 26.7713 55.1146 26.638 55.7653 26.638H57.1733C57.8239 26.638 58.3946 26.7713 58.8853 27.038C59.3866 27.294 59.7706 27.662 60.0373 28.142C60.3146 28.6113 60.4533 29.1553 60.4533 29.774V31.758C60.4533 32.6967 60.1493 33.454 59.5413 34.03C58.9439 34.5953 58.1439 34.878 57.1413 34.878H55.7493ZM57.1253 33.294C57.5733 33.294 57.9306 33.1447 58.1973 32.846C58.4746 32.5367 58.6133 32.1367 58.6133 31.646V29.87C58.6133 29.3793 58.4799 28.9847 58.2133 28.686C57.9466 28.3767 57.5893 28.222 57.1413 28.222H55.7973C55.3493 28.222 54.9919 28.3767 54.7253 28.686C54.4586 28.9847 54.3253 29.3793 54.3253 29.87V31.646C54.3253 32.1367 54.4586 32.5367 54.7253 32.846C54.9919 33.1447 55.3386 33.294 55.7653 33.294H57.1253ZM63.3803 25.87C63.0176 25.87 62.7243 25.7633 62.5003 25.55C62.2869 25.326 62.1803 25.0433 62.1803 24.702C62.1803 24.3607 62.2869 24.0833 62.5003 23.87C62.7243 23.646 63.0176 23.534 63.3803 23.534C63.7429 23.534 64.0363 23.646 64.2603 23.87C64.4843 24.0833 64.5963 24.3607 64.5963 24.702C64.5963 25.0433 64.4843 25.326 64.2603 25.55C64.0363 25.7633 63.7429 25.87 63.3803 25.87ZM62.4683 26.766H64.3083V34.75H62.4683V26.766ZM66.649 26.766H68.361V27.806C68.5957 27.454 68.905 27.1713 69.289 26.958C69.673 26.7447 70.057 26.638 70.441 26.638H71.433C72.2543 26.638 72.9103 26.8993 73.401 27.422C73.9023 27.9447 74.153 28.6327 74.153 29.486V34.75H72.313V29.534C72.313 29.15 72.2117 28.8407 72.009 28.606C71.817 28.3607 71.561 28.238 71.241 28.238H70.249C69.833 28.238 69.4597 28.398 69.129 28.718C68.7983 29.0273 68.585 29.4273 68.489 29.918V34.75H66.649V26.766ZM84.3629 34.878C83.6162 34.878 82.9549 34.718 82.3789 34.398C81.8029 34.0673 81.3549 33.6087 81.0349 33.022C80.7255 32.4247 80.5709 31.7367 80.5709 30.958V23.55H82.4429V30.926C82.4429 31.6193 82.6189 32.1793 82.9709 32.606C83.3229 33.022 83.7869 33.23 84.3629 33.23H86.0749C86.6615 33.23 87.1309 33.022 87.4829 32.606C87.8455 32.1793 88.0269 31.6193 88.0269 30.926V23.55H89.8989V30.958C89.8989 31.7367 89.7389 32.4247 89.4189 33.022C89.0989 33.6087 88.6509 34.0673 88.0749 34.398C87.4989 34.718 86.8322 34.878 86.0749 34.878H84.3629ZM94.5859 34.878C93.6685 34.878 92.9325 34.6327 92.3779 34.142C91.8232 33.6513 91.5459 33.0007 91.5459 32.19H93.3539C93.3539 32.5313 93.4659 32.8087 93.6899 33.022C93.9139 33.2247 94.2125 33.326 94.5859 33.326H96.0099C96.3725 33.326 96.6552 33.2673 96.8579 33.15C97.0712 33.022 97.1779 32.8513 97.1779 32.638V32.286C97.1779 32.1367 97.1139 32.0087 96.9859 31.902C96.8685 31.7953 96.7032 31.7207 96.4899 31.678L93.7219 31.198C93.1032 31.0913 92.6125 30.8673 92.2499 30.526C91.8872 30.174 91.7059 29.7687 91.7059 29.31V28.782C91.7059 28.1207 91.9672 27.598 92.4899 27.214C93.0232 26.83 93.7539 26.638 94.6819 26.638H95.9619C96.8045 26.638 97.4872 26.8673 98.0099 27.326C98.5325 27.7847 98.7939 28.3873 98.7939 29.134H96.9859C96.9859 28.846 96.8899 28.6167 96.6979 28.446C96.5165 28.2753 96.2712 28.19 95.9619 28.19H94.6979C94.3245 28.19 94.0365 28.2487 93.8339 28.366C93.6312 28.4833 93.5299 28.6487 93.5299 28.862V29.182C93.5299 29.3313 93.5885 29.4593 93.7059 29.566C93.8339 29.6727 93.9992 29.742 94.2019 29.774L97.0659 30.286C97.6525 30.4033 98.1219 30.6273 98.4739 30.958C98.8259 31.2887 99.0019 31.678 99.0019 32.126V32.718C99.0019 33.3793 98.7299 33.9073 98.1859 34.302C97.6419 34.686 96.9165 34.878 96.0099 34.878H94.5859Z" fill="#333333"/>
<path d="M79.4583 54.2628C72.1394 54.9732 67.5146 58.2786 60.899 55.9044C54.2834 53.5303 46.7226 54.2628 40.107 54.2628C29.7751 54.2628 33.0188 48.3625 24.2714 49.7314C19.3727 50.4981 18.5154 44.2893 14.5882 43.3414C13.1512 42.9946 4.39556 42.4851 3.71973 37.3854C2.77579 30.2627 -0.617468 28.4546 1.35702 24.0897C3.71984 18.8664 5.88774 18.0716 12.2268 14.5927C17.3048 11.8059 18.6115 7.42341 25.4581 6.04549C30.0281 5.12572 32.0737 6.04549 41.5233 2.24669C45.0668 0.822164 48.6128 4.19162 54.7559 2.72153C59.0088 1.70377 63.2617 1.77186 67.9872 2.72153C71.2341 3.37405 78.6972 0.241635 82.1636 0.822164C89.9771 2.13075 90.9213 3.64091 98.7027 3.62569C103.291 3.61671 105.591 4.20198 108.626 6.04549C111.214 7.61773 111.461 8.41972 116.187 9.36942C119.111 9.95703 126.006 10.1835 128.946 14.5927C132.111 19.3412 134.616 21.2406 135.561 21.7154C138.551 23.2177 138.675 23.9081 140.287 25.5142C140.964 26.1893 141.977 29.5587 141.704 31.6872C141.424 33.869 139.204 36.9106 137.451 38.81C135.311 41.1296 131.308 42.1339 127.528 43.5584C123.726 44.9913 121.527 48.095 119.022 49.0544C113.352 51.2267 113.488 50.0892 104.976 50.6811C100.051 51.0236 96.6784 53.3795 93.1622 54.2628C89.3818 55.2126 89.5208 53.2863 79.4583 54.2628Z" stroke="#333333" stroke-width="1.5" stroke-linecap="round"/>
</svg>
