<svg width="141" height="102" viewBox="0 0 141 102" fill="none" xmlns="http://www.w3.org/2000/svg">
<mask id="mask0_1_107" style="mask-type:luminance" maskUnits="userSpaceOnUse" x="9" y="0" width="123" height="102">
<path d="M132 0H9V102H132V0Z" fill="white"/>
</mask>
<g mask="url(#mask0_1_107)">
<path d="M64.2656 101.054C53.2086 101.054 44.1849 100.054 40.362 98.4908C37.7406 97.4102 34.1782 94.3634 30.5653 91.1132C23.7345 88.5197 18.038 84.9574 13.2993 80.3556L13.5597 79.9624C17.9792 84.2511 23.2556 87.6425 29.5235 90.1749C29.2798 89.9534 29.0277 89.731 28.7841 89.4991C24.5243 85.6342 20.1217 81.6376 17.3406 80.7499C14.1058 79.7199 10.1905 74.8661 9.74522 69.538C9.49317 66.5105 10.2746 62.2721 15.4166 59.2346C19.315 56.9438 21.9112 56.4293 23.5833 57.6402C25.8518 59.2649 25.9946 63.7455 26.1543 68.9326C26.1795 69.6188 26.1963 70.3251 26.2214 71.0316C26.4987 78.0953 32.4725 77.9034 39.4042 77.6915C41.3955 77.6314 43.4623 77.5608 45.42 77.6915C75.3058 79.5586 107.427 79.8211 107.922 74.9768C107.998 74.2104 108.082 73.504 108.166 72.8482C108.476 70.2848 108.678 68.5894 107.989 67.7014C107.359 66.8839 105.864 66.6317 102.998 66.8537C95.5462 67.4491 84.2791 67.5803 77.4735 67.4088C74.6757 67.3381 71.088 67.0757 67.2903 66.8032C61.0812 66.3491 54.6622 65.8849 50.2175 66.117C43.017 66.4904 33.2792 65.9353 30.5653 64.9968C27.8514 64.0583 26.1291 62.595 25.8014 58.1347C25.7006 56.8026 25.7594 56.3081 26.0198 56.0861C26.2971 55.854 26.65 56.0558 27.2381 56.3889C28.1371 56.9035 29.6495 57.7714 31.9936 57.5898C34.1949 57.4283 35.9258 57.8319 37.5978 58.2154C39.8075 58.7199 42.0928 59.2447 45.5629 58.5182C48.6463 57.8723 50.5368 58.4677 52.192 59.0026C53.9312 59.5575 55.4351 60.0318 57.9809 59.1741C60.3923 58.3466 62.1819 58.9823 64.0723 59.6484C66.2485 60.4154 68.7186 61.2832 72.6508 60.0016C76.9358 58.6089 80.5402 59.1741 83.7162 59.6787C86.0099 60.042 87.9844 60.3548 89.7066 59.8199C93.5888 58.6089 101.05 59.2245 104.461 59.719C105.166 59.8199 105.754 59.7594 106.276 59.719C107.276 59.6182 107.939 59.6182 108.317 60.6575C108.241 59.0429 108.107 57.1255 107.914 56.1567C107.653 54.8651 103.099 55.2687 98.2769 55.6925C95.454 55.9448 92.2608 56.2274 89.2194 56.2576C80.9771 56.3384 69.8445 56.1769 65.6015 55.42C61.5938 54.7036 50.6208 55.2081 44.5294 55.8843C41.4962 56.2173 38.3287 55.3394 35.5309 54.5724C32.8255 53.8256 30.4897 53.1797 28.7337 53.6642C28.1959 53.8156 27.7422 53.9467 27.3725 54.0577C26.2214 54.4009 25.8854 54.5018 25.7258 54.199C25.5661 53.8862 25.7846 53.5633 26.608 52.3523C26.8853 51.9486 27.2129 51.4541 27.6078 50.8587C29.4058 48.1037 31.0106 48.5276 33.6656 49.2139C34.9092 49.5368 36.4467 49.9404 38.3875 50.112C43.3279 50.566 52.5281 51.3936 62.308 49.6478C68.3237 48.5679 71.9114 49.3955 75.373 50.1927C77.2802 50.6267 79.2632 51.0807 81.624 51.212C88.186 51.5752 100.444 51.9486 104.696 51.0303C105.881 50.778 106.62 50.6872 107.099 50.7073C106.611 47.8616 106.032 43.7644 106.023 43.7039C105.964 42.8562 105.175 41.9378 104.058 41.4233C103.217 41.0296 100.209 40.0306 96.991 43.613C96.3696 44.3094 95.8148 44.9552 95.311 45.5507C93.5046 47.6698 92.3196 49.0625 90.9924 48.9616C90.0006 48.8909 89.0096 48.0028 87.6735 45.9946C84.1531 40.6865 80.5486 39.2839 76.3308 41.5745C74.9613 42.3113 73.9867 43.1287 73.2809 43.7342C72.4491 44.4305 71.8862 44.8947 71.3569 44.6928C70.8696 44.5112 70.4999 43.8351 69.9873 42.1901C69.4412 40.4343 68.8279 39.5159 68.1053 39.3746C67.1727 39.2031 65.9712 40.293 64.2824 42.8259C62.2492 45.8837 60.7452 47.135 59.3924 46.8726C58.233 46.6506 57.2836 45.3084 56.4854 42.7553C55.3259 39.0517 53.0574 37.5884 51.4442 37.8004C49.9991 37.9921 48.9824 39.4251 48.722 41.625C48.4027 44.3699 47.4785 45.036 46.7727 45.1167C45.3527 45.2882 43.6304 43.1186 42.8322 40.2122C42.6054 39.3949 42.4625 39.3343 42.4625 39.3242C42.2609 39.3848 41.866 40.6764 41.5803 41.625C40.8577 44.0066 39.8663 47.2762 38.0262 47.8414C34.7999 48.8303 34.4638 47.579 33.3632 43.4415C33.2623 43.048 33.1447 42.6342 33.0271 42.1801C32.8086 41.3626 32.1281 38.8802 31.4139 38.8701C30.5317 38.8701 29.3638 42.3113 28.5572 44.8947C26.8012 50.5459 25.8014 52.6147 24.8016 52.554C24.0958 52.5036 23.5581 51.3532 23.0539 48.8303C22.9027 48.0836 22.7262 47.2561 22.5414 46.3781C21.4156 41.1205 19.878 33.9252 21.7348 31.5235C22.2978 30.7969 23.1296 30.5447 24.1966 30.7667C29.6243 31.907 84.8084 37.1747 94.2437 37.1747C94.5377 37.1747 94.7817 37.1747 94.9835 37.1545C98.3691 36.983 100.31 36.5188 100.721 36.2261C100.403 36.0243 98.7641 35.4591 90.4878 35.4088C80.6159 35.3481 65.652 33.3601 54.7294 31.9171C49.2597 31.1905 44.9411 30.6153 43.1598 30.5547L42.4373 30.5244C33.6572 30.2015 28.1708 29.7071 28.0027 28.2539C27.9271 27.6484 28.5993 27.1135 30.2376 26.4778C35.0184 24.6209 35.178 23.9852 35.5645 22.4513C35.7997 21.5329 36.1106 20.2715 37.3961 18.3138C39.2025 15.5689 41.3955 14.1662 43.5884 13.7626C43.6387 13.2781 43.7648 12.7332 43.9664 12.1277C46.7307 4.08485 48.7976 3.77195 48.8816 3.76193L49.8479 3.66104L48.9993 4.23624C48.8312 4.34725 44.8571 7.13248 46.0754 13.1167C46.1173 13.3286 46.1677 13.5304 46.2182 13.7222C47.6801 13.9442 49.0833 14.5598 50.2931 15.4378C50.562 15.6294 50.7552 15.8212 50.8897 16.0028C51.0997 16.0937 51.3098 16.1946 51.5198 16.2955C55.4351 18.2734 55.7292 17.6074 56.3846 16.134C56.7795 15.246 57.3256 14.025 58.7959 12.9855C59.5689 12.4405 60.2579 12.0772 60.8544 11.8754C60.4595 11.3608 60.2747 10.6644 60.2999 9.81681C60.3923 6.93059 62.9297 2.86381 63.5598 2.62155C63.6943 2.57115 63.8035 2.64179 63.8539 2.72244C63.9463 2.86381 64.0639 3.04546 63.1061 4.8417C61.7282 7.43516 61.3921 9.88745 61.535 11.6938C62.4172 11.5424 63.0473 11.7543 63.4338 12.1378C63.8539 12.1378 64.2908 12.1984 64.7277 12.2993C65.3243 12.4405 65.9124 12.6626 66.4669 12.9451C66.8955 12.9653 67.2987 13.0258 67.7272 13.2176C67.7608 12.1782 68.0213 11.1892 68.6346 10.3718C70.3319 8.11135 72.7096 7.0921 75.373 7.33426C75.3814 7.18287 75.415 7.02146 75.457 6.85996C75.8435 5.39675 77.4567 3.98395 79.1287 2.86381C80.5738 1.01698 81.6661 0.421641 82.3971 0.290488C83.1869 0.149122 83.607 0.532654 83.6237 0.552795L83.9178 0.83543L83.5649 0.986724C83.5649 0.986724 81.3972 1.93534 79.3808 3.26739C78.8514 3.96372 78.2633 4.83158 77.6247 5.93158C77.2719 6.52692 77.0198 7.08198 76.8601 7.58654C77.8348 7.83883 78.8431 8.25262 79.8597 8.82782C80.4478 9.16085 80.7335 9.53417 80.6999 9.93784C80.6999 9.96819 80.6999 9.98834 80.6914 10.0186C81.1368 10.1901 81.5988 10.5232 82.0862 11.1387C82.2543 11.3506 82.3971 11.5525 82.5063 11.7342C82.6239 11.6635 82.7499 11.5828 82.876 11.5122C89.5301 7.60678 90.7993 8.49478 90.9169 8.60579L91.3199 8.97921L90.816 9.05996C90.7485 9.06998 84.0522 10.17 82.0106 15.0745L81.9434 15.2258C81.8257 15.5084 81.7165 15.7707 81.624 15.9927C81.8846 16.124 82.145 16.2753 82.3971 16.4368C83.3717 16.1744 84.8252 16.134 86.5645 17.4661C87.7239 18.3541 88.2281 19.8881 88.06 21.7247C88.6061 22.2495 89.0684 22.6329 89.4125 22.7439C90.3956 23.0567 91.4462 23.7027 92.6645 24.4494C94.2945 25.4484 96.1343 26.5888 98.5455 27.4061C102.755 28.8392 107.175 33.4005 106.998 34.9748C106.982 35.1161 106.923 35.2271 106.822 35.3078C106.418 35.6307 105.393 35.3481 103.091 34.6822C99.9569 33.7638 95.21 32.3711 90.673 32.7446C86.4048 33.0977 84.338 32.684 82.6827 32.351C81.33 32.0785 80.1621 31.8464 78.2045 32.0987C77.1962 32.2299 76.3981 32.2703 75.7175 32.2804C78.8431 32.462 82.0778 32.6538 84.8924 33.5317C88.0936 34.5409 89.5977 34.1372 91.1855 33.7234C92.2696 33.4409 93.3949 33.1381 95.0924 33.239C97.8819 33.3904 99.9824 34.1574 102.007 34.9041C103.066 35.2876 104.158 35.6913 105.326 35.994C108.241 36.7408 108.359 37.5078 108.342 40.293C108.342 40.7773 108.342 41.3223 108.351 41.948C108.426 44.925 109.317 52.3725 109.762 55.9549C110.216 55.6219 110.997 55.5614 112.148 55.7934C116.072 56.5907 130.238 61.8382 131.204 69.538C131.608 72.727 130.691 75.9056 128.566 78.711C126.97 80.8205 125.281 81.9707 125.205 82.0213L125.004 81.5774C125.07 81.5364 131.717 76.9556 130.792 69.6087C129.86 62.1813 115.929 57.0751 112.081 56.2879C110.51 55.9751 110.006 56.2879 109.838 56.5301C109.947 57.3778 110.014 57.8925 110.014 57.9227L110.165 59.0732L109.636 58.0943C109.636 58.0943 109.132 57.1457 109.401 56.4293C108.972 53.0385 108.015 45.0763 107.939 41.9581C107.922 41.3324 107.93 40.7773 107.93 40.293C107.939 37.7197 107.947 37.1848 105.242 36.4885C104.058 36.1857 102.957 35.7821 101.89 35.3885C99.8902 34.6518 97.8144 33.895 95.0757 33.7436C93.4291 33.6427 92.3363 33.9455 91.2777 34.2179C89.6398 34.6518 88.0852 35.0656 84.7832 34.0262C82.0022 33.1482 78.7674 32.9666 75.6502 32.7849C72.6927 32.6134 69.8949 32.4519 67.5004 31.7455C63.8455 30.6657 62.8037 30.6859 60.0142 30.7061C59.0396 30.7061 57.8297 30.7263 56.2333 30.7061C51.6543 30.6153 51.2258 30.252 51.167 29.8181C51.0997 29.3438 51.6459 29.0006 52.9146 28.4154C53.99 27.9107 54.3093 28.1227 54.7377 28.5062C55.1495 28.8694 55.7124 29.374 57.9221 29.1016C61.6022 28.6474 62.9465 28.9401 66.5258 29.7373C67.0971 29.8584 67.7188 29.9997 68.4162 30.1511C70.0462 30.5043 71.1888 30.8373 72.1131 31.1097C74.1463 31.7052 75.1713 32.0079 78.1625 31.6143C80.1789 31.3419 81.372 31.584 82.7584 31.8666C84.3968 32.1996 86.4384 32.6033 90.6563 32.2601C95.2601 31.8767 100.041 33.2794 103.2 34.2079C104.763 34.672 106.376 35.1362 106.594 34.9142C106.704 33.8446 102.755 29.3841 98.4366 27.9107C95.9833 27.0732 94.0418 25.8723 92.4794 24.9136C91.2865 24.1769 90.2525 23.5412 89.3116 23.2485C88.942 23.1274 88.5053 22.7944 87.9927 22.3201C87.8415 23.2485 87.5307 24.2375 87.0601 25.2567C85.2958 29.0511 81.6745 32.0583 78.4482 30.1712C75.5999 28.5062 74.0035 26.5181 73.701 24.2779C73.407 22.0476 74.3984 19.5954 76.6417 16.9918C76.9862 16.5882 77.339 16.2753 77.692 16.0432C77.6163 16.0432 77.5407 16.0634 77.4651 16.0735C73.9447 16.6083 72.676 19.1514 72.2727 20.3421C72.1467 21.1696 72.0543 21.2605 71.8862 21.2403L71.693 21.2201V20.9981C71.6089 21.9568 71.3737 22.9155 70.9788 23.8237C69.5169 27.1438 66.3157 28.8291 62.4087 28.3346C59.1068 27.9107 57.0399 26.5383 56.2585 24.2576C55.4015 21.7449 56.2669 18.2129 58.5943 14.8019C59.3084 13.7524 60.2074 12.9956 61.2157 12.5617C61.1989 12.4708 61.1821 12.38 61.1737 12.2791C60.5687 12.4608 59.8546 12.8139 59.0144 13.4094C57.6533 14.3781 57.1575 15.478 56.7626 16.3661C56.0401 17.9908 55.536 18.7073 52.276 17.1936C52.8809 17.6377 53.4523 18.3541 53.9648 19.5045C55.2671 22.4614 52.8725 26.3163 49.7974 28.3446C46.5291 30.4942 41.7735 31.019 39.1269 25.4181C37.1357 21.21 37.9003 18.7276 38.8917 17.3854C39.9335 15.9827 41.6559 15.1955 43.6051 14.9231C43.5716 14.7112 43.5632 14.479 43.5632 14.2267C41.3786 14.6808 39.337 16.1744 37.7322 18.6165C36.4971 20.4935 36.1946 21.7045 35.9762 22.5824C35.5476 24.298 35.3712 25.0045 30.3805 26.9521C28.3976 27.719 28.4228 28.163 28.4312 28.1731C28.532 29.0511 33.2539 29.6768 42.4625 30.0098L43.185 30.0401C44.9831 30.1107 49.3101 30.6859 54.7882 31.4125C65.7023 32.8556 80.6495 34.8436 90.4965 34.9041C101.184 34.9647 101.201 35.8427 101.209 36.216C101.226 37.2352 96.8821 37.5683 95.0082 37.6591C88.1188 37.9821 30.2796 32.5528 24.1378 31.2611C23.1968 31.0593 22.5162 31.2611 22.0541 31.8666C20.3569 34.0666 21.8609 41.1104 22.9616 46.257C23.1463 47.135 23.3312 47.9625 23.4741 48.7093C24.0118 51.4239 24.5159 52.0192 24.8351 52.0495C24.8351 52.0495 24.852 52.0495 24.8604 52.0495C25.8938 52.0495 27.4901 46.913 28.1708 44.713C29.5907 40.1517 30.5065 38.3554 31.4223 38.3554C31.4223 38.3554 31.4307 38.3554 31.4391 38.3554C32.1533 38.3756 32.7498 39.4655 33.4472 42.0186C33.5732 42.4728 33.6824 42.8865 33.7833 43.28C34.9007 47.4579 35.1024 48.2147 37.9422 47.3469C39.5638 46.8524 40.5132 43.7342 41.2022 41.4434C41.7399 39.6673 42.0256 38.8096 42.4877 38.8096C42.7901 38.8096 43.017 39.1829 43.2523 40.0407C43.9748 42.6847 45.5544 44.7232 46.7559 44.5919C47.5457 44.5112 48.1086 43.4213 48.3271 41.5343C48.6127 39.0921 49.7722 37.4977 51.419 37.2756C53.2002 37.0435 55.662 38.5977 56.8971 42.5534C57.6281 44.8846 58.4935 46.1662 59.4765 46.3479C61.0057 46.6405 62.77 44.2791 63.9715 42.4828C65.7863 39.7582 67.0887 38.6379 68.1894 38.8499C69.0715 39.0215 69.7941 40.0407 70.399 41.9883C70.8444 43.4011 71.172 44.0571 71.4997 44.1782C71.8358 44.3094 72.3231 43.8956 73.054 43.28C73.7767 42.6746 74.7764 41.8369 76.1796 41.0801C80.5402 38.7187 84.4135 40.2122 88.0264 45.6515C89.2615 47.5084 90.1937 48.3661 91.0425 48.4267C92.1766 48.5175 93.3194 47.1754 95.0424 45.1571C95.5462 44.5617 96.1089 43.9057 96.7311 43.2094C100.125 39.4251 103.335 40.4948 104.234 40.9187C105.519 41.514 106.393 42.5838 106.46 43.6333C106.552 44.9956 107.14 48.4469 107.561 50.7578C107.712 50.8083 107.813 50.889 107.897 50.9798C108.141 51.2624 108.082 51.666 108.023 52.0596C107.981 52.3421 107.939 52.6248 107.989 52.9173C108.015 53.1091 108.031 53.2201 107.93 53.311L107.83 53.4018L107.712 53.3412C107.712 53.3412 107.645 53.2504 107.612 53.1192H107.586C107.586 53.1192 107.586 53.0587 107.57 52.9981V52.9577C107.469 52.5743 107.334 51.9486 107.199 51.1816C106.536 51.111 105.267 51.3835 104.78 51.4844C99.4865 52.6147 83.4221 51.7669 81.6073 51.6762C79.2127 51.5449 77.2214 51.0908 75.2974 50.6468C71.8694 49.8597 68.3153 49.0422 62.3751 50.1019C52.5448 51.8578 43.3195 51.0202 38.3623 50.566C36.3879 50.3844 34.8335 49.9807 33.5816 49.6578C30.9182 48.9716 29.5823 48.6184 27.9439 51.1211C27.5574 51.7165 27.2213 52.211 26.9441 52.6147C26.5996 53.1192 26.2971 53.5733 26.1711 53.8156C26.3895 53.7852 26.8096 53.654 27.2885 53.5128C27.6667 53.4018 28.1204 53.2605 28.6581 53.1091C30.4981 52.6045 32.8843 53.2605 35.6401 54.0173C38.4127 54.7843 41.5467 55.6522 44.5125 55.3191C50.6292 54.643 61.6442 54.1385 65.6856 54.8549C69.9033 55.6017 81.0023 55.7632 89.2361 55.6824C92.2608 55.6522 95.454 55.3696 98.2682 55.1173C104.486 54.5724 108.015 54.3403 108.342 55.965C108.603 57.2668 109.006 63.2914 108.712 63.5942L108.612 63.695L108.485 63.6446C108.351 63.584 108.317 63.5235 108.233 62.4235C108.031 59.9814 107.57 60.0318 106.326 60.153C105.813 60.2034 105.175 60.274 104.427 60.153C101.05 59.6584 93.6556 59.0429 89.8329 60.2337C88.0348 60.7887 86.0183 60.4759 83.6825 60.1126C80.5402 59.6182 76.9862 59.053 72.7852 60.4254C68.7355 61.7474 66.2064 60.8493 63.9715 60.0722C62.0643 59.3961 60.4091 58.8209 58.1154 59.5979C55.4604 60.5062 53.8304 59.9814 52.0996 59.4264C50.4023 58.8814 48.638 58.3264 45.6469 58.9521C42.1012 59.6988 39.7823 59.164 37.5306 58.6493C35.8081 58.2557 34.1782 57.8723 32.0272 58.0337C29.5823 58.2154 28.0111 57.3173 27.0701 56.7824C26.7508 56.6008 26.3559 56.3788 26.2719 56.4393C26.2131 56.4898 26.1374 56.7522 26.2299 58.0337C26.5323 62.2318 28.0951 63.5639 30.683 64.4519C33.3716 65.3702 43.0422 65.9152 50.2091 65.5519C54.6789 65.3299 61.1064 65.7941 67.3239 66.2381C71.1132 66.5105 74.7009 66.7729 77.4903 66.8436C84.2875 67.0152 95.5375 66.8738 102.974 66.2886C106.023 66.0463 107.561 66.339 108.3 67.2977C109.124 68.3573 108.906 70.1536 108.586 72.8578C108.511 73.504 108.426 74.2104 108.342 74.9768C108.031 78.0046 98.6719 79.4479 79.7505 79.3973C70.0461 79.3667 58.1658 78.9334 45.4032 78.1363C43.4539 78.0151 41.4038 78.0753 39.421 78.1363C32.5734 78.3483 26.1038 78.5602 25.8098 71.0013C25.7846 70.2949 25.7594 69.5885 25.7425 68.9022C25.583 63.8666 25.4485 59.5172 23.3732 58.0237C21.8524 56.9338 19.3067 57.4585 15.6014 59.6484C10.6694 62.5548 9.92167 66.5812 10.1569 69.4472C10.5854 74.574 14.3327 79.2465 17.4414 80.2249C20.3065 81.1326 24.5495 84.9775 29.0361 89.0552C29.6075 89.5697 30.1788 90.0947 30.7585 90.6092C41.3198 94.6049 54.6118 96.24 71.2308 95.7055C82.6575 95.3322 97.0165 93.3134 108.401 89.6404C108.695 89.1259 109.132 88.6515 109.905 88.2878C110.872 87.8239 112.325 87.0975 113.871 86.3205C123.155 81.6576 123.693 81.5669 123.877 82.0012C123.978 82.2532 124.054 82.4251 121.794 83.9991C118.399 86.3701 113.846 88.389 108.67 90.0737C108.502 90.4173 108.393 90.7906 108.267 91.2048C107.3 94.413 105.317 97.2289 90.6475 99.2372C81.5988 100.478 72.3819 101.014 64.2572 101.014L64.2656 101.054ZM31.7584 91.5475C35.0099 94.4436 38.1607 97.0475 40.4964 98.0059C46.1846 100.337 67.3071 101.961 90.6054 98.7733C106.208 96.6333 107.175 93.4146 107.872 91.0731C107.947 90.8106 108.031 90.5481 108.124 90.2961C96.7558 93.909 82.5651 95.8868 71.2393 96.26C55.1495 96.7745 42.1768 95.2711 31.7584 91.558V91.5475ZM123.063 82.5157C121.492 83.0904 117.097 85.2906 114.031 86.835C112.484 87.612 111.023 88.3489 110.056 88.8128C109.653 89.0046 109.359 89.2165 109.132 89.459C114.031 87.8239 118.333 85.8862 121.575 83.6259C122.323 83.1009 122.777 82.7582 123.063 82.5358V82.5157ZM61.1905 30.2419C63.2322 30.2419 64.4673 30.373 67.6264 31.3015C69.7437 31.9272 72.1971 32.1189 74.8101 32.2703C73.869 32.1694 73.0709 31.9372 72.0374 31.6345C71.1217 31.362 69.9789 31.029 68.3658 30.6859C67.66 30.5345 67.0383 30.3933 66.4669 30.2721C62.8288 29.4649 61.6022 29.1924 57.9809 29.6465C55.6032 29.9391 54.9646 29.374 54.5025 28.9602C54.1748 28.6677 53.9984 28.5062 53.0826 28.93C52.2339 29.3235 51.7467 29.6162 51.6207 29.7777C51.8223 29.9391 52.7213 30.1814 56.2585 30.252C57.8549 30.2822 59.0564 30.2721 60.031 30.252C60.4511 30.252 60.8292 30.252 61.1821 30.252L61.1905 30.2419ZM77.4819 16.8506C77.3055 17.0019 77.129 17.1835 76.9526 17.3854C74.8101 19.878 73.8607 22.1788 74.138 24.2375C74.4152 26.3062 75.9275 28.163 78.6498 29.7574C81.6409 31.5033 85.0437 28.6373 86.7157 25.0448C87.1442 24.1164 87.4971 23.0366 87.6315 21.9871C87.2786 21.6339 86.9006 21.2403 86.4888 20.8063C85.2621 19.5147 83.8254 18.001 82.355 17.0322C82.061 17.123 81.8173 17.234 81.624 17.3147C81.6157 17.3147 81.6073 17.3147 81.5988 17.3249C81.5821 17.4055 81.5569 17.4762 81.5233 17.5569C81.1788 18.4248 80.1873 19.1211 79.2043 19.1917C78.2633 19.2422 77.5911 18.7982 77.4147 17.9908C77.3475 17.6679 77.3643 17.2845 77.4903 16.8506H77.4819ZM43.706 15.4276C41.8323 15.6799 40.1939 16.4166 39.2109 17.7487C37.917 19.4945 38.0179 22.0678 39.4966 25.1961C41.992 30.484 46.5038 29.9694 49.6042 27.931C52.4357 26.064 54.7714 22.421 53.6035 19.7771C52.8725 18.1321 52.0156 17.4661 51.1165 17.1835C51.1165 17.1835 51.1165 17.1936 51.1165 17.2037C50.5872 18.3844 47.5205 18.8284 45.4704 17.6578C44.8486 17.3046 44.0421 16.6386 43.7312 15.4478L43.706 15.4276ZM61.3165 13.0763C60.4007 13.48 59.5857 14.1762 58.922 15.1551C56.7038 18.4248 55.8552 21.7651 56.6534 24.0962C57.376 26.1952 59.3252 27.4668 62.4592 27.8603C66.1897 28.3346 69.2396 26.7502 70.6175 23.6219C71.7098 21.1293 71.4745 18.1826 70.0125 16.124C69.29 15.0946 68.7019 14.4689 68.1809 14.0855C68.1809 14.1056 68.1809 14.136 68.1809 14.1561C69.4832 15.2964 70.4914 16.8404 70.9284 18.5156C71.214 19.6257 71.2057 20.2009 70.9032 20.3926C70.5083 20.6348 69.9537 19.9587 69.5588 19.3431C68.7943 18.1624 68.0045 16.2955 67.786 14.4285C67.3492 14.0652 66.8786 13.7423 66.3829 13.48C66.1897 13.48 65.9964 13.48 65.7863 13.48C65.2486 13.48 64.6437 13.49 63.9044 13.3488C63.9127 13.7928 63.7867 14.2671 63.5262 14.7313C63.2154 15.2864 62.7448 15.4074 62.2996 15.0643C61.9047 14.7515 61.535 14.0552 61.3081 13.0864L61.3165 13.0763ZM82.9852 16.8707C84.338 17.8597 85.6318 19.222 86.7577 20.4128C87.077 20.7458 87.3879 21.0788 87.6735 21.3715C87.7407 20.0091 87.3962 18.7377 86.3544 17.9404C85.0017 16.901 83.859 16.7496 82.9852 16.8808V16.8707ZM68.1642 13.4699C68.7859 13.8634 69.4748 14.5598 70.3402 15.7808C71.3485 17.2037 71.8106 19.0101 71.7182 20.8266C71.7434 20.655 71.8022 20.4128 71.903 20.1201C71.903 20.1101 71.903 20.0899 71.903 20.0798C72.0458 19.0908 71.8274 18.1624 71.6342 17.345C71.4157 16.4267 71.2309 15.6294 71.6173 14.9937C72.0206 14.3276 72.9952 13.9946 74.8017 13.9038C75.6083 13.8635 76.3812 13.8433 77.1122 13.813C78.0952 13.7827 79.0195 13.7524 79.826 13.6919C80.4562 13.147 81.2208 12.5818 82.1366 11.9966C82.0442 11.8452 81.9265 11.6837 81.7921 11.5122C81.3132 10.9167 80.8847 10.6241 80.4646 10.4828C80.2965 10.6544 80.0529 10.7957 79.7421 10.8966C78.6666 11.2396 77.1795 11.0277 76.5577 9.94796C76.5325 9.90758 76.5073 9.86721 76.4905 9.81681C76.2468 9.56453 75.9948 9.22137 75.7343 8.78744C75.5578 8.49478 75.4486 8.18198 75.4066 7.85906C73.2977 7.63704 70.9032 8.16175 68.9707 10.7351C68.3742 11.5323 68.1641 12.5011 68.1725 13.4598L68.1642 13.4699ZM68.2901 14.8625C68.4666 15.8313 68.769 16.6891 68.9792 17.2139C69.7101 19.0202 70.5251 19.9183 70.7183 19.9183C70.7183 19.9183 70.7939 19.6559 70.5335 18.6468C70.1638 17.2239 69.3488 15.9019 68.2901 14.8625ZM79.2295 14.2469C78.5994 14.2873 77.8936 14.3075 77.1206 14.3276C76.3897 14.3479 75.6167 14.3781 74.8185 14.4185C73.2053 14.4992 72.2727 14.7818 71.9618 15.2964C71.7013 15.7304 71.8526 16.3863 72.0458 17.2139C72.1802 17.7891 72.3231 18.4046 72.3651 19.0807C73.1213 17.6982 74.6252 16.0432 77.4315 15.6093C77.6835 15.5689 77.9188 15.5387 78.1457 15.5184C78.423 15.1148 78.7842 14.6909 79.2295 14.2469ZM78.1121 16.4065C77.818 16.9918 77.7339 17.4863 77.818 17.8597C77.9356 18.4147 78.4649 18.7477 79.1707 18.6771C80.0277 18.6165 80.7755 18.0312 81.078 17.4661C81.0107 17.456 80.9603 17.4258 80.9099 17.3551C80.7923 17.1936 80.7923 17.0322 81.0023 16.4771C80.8679 16.346 80.641 16.1946 80.2377 16.0936C79.5152 15.9523 78.801 16.0331 78.1121 16.4065ZM44.1345 15.3771C44.4034 16.2753 45.0167 16.8404 45.6217 17.1835C47.4112 18.2027 50.0999 17.8496 50.6629 17.0523C50.2763 16.9716 49.8814 16.9413 49.4949 16.9111C48.3775 16.8202 47.2348 16.7294 46.4282 15.3873C45.6552 15.3166 44.8738 15.3065 44.1345 15.3873V15.3771ZM81.5652 16.5679C81.5905 16.6386 81.6073 16.6992 81.6157 16.7698C81.6745 16.7496 81.7333 16.7193 81.8006 16.6891C81.7249 16.6487 81.6409 16.6083 81.5652 16.5679ZM47.0163 15.4478C47.6717 16.2551 48.5371 16.3258 49.5285 16.4065C49.915 16.4368 50.3099 16.467 50.7132 16.5478C50.6964 16.5175 50.6796 16.4771 50.6544 16.4469C49.5201 15.9625 48.2683 15.6194 47.0163 15.4478ZM79.8093 15.5084C80.2882 15.5387 80.7671 15.6698 81.246 15.8616C81.3384 15.6294 81.456 15.357 81.5821 15.0441L81.6493 14.8827C81.8341 14.4488 82.0442 14.035 82.2878 13.6515C81.8006 13.9543 81.0107 14.1056 79.9605 14.1864C79.448 14.6304 79.0447 15.0643 78.7254 15.468C79.1287 15.4478 79.49 15.468 79.8093 15.4983V15.5084ZM46.6635 14.913C47.6297 15.0138 48.5959 15.2157 49.5285 15.5084C48.4951 14.8423 47.4364 14.4185 46.3779 14.2267C46.4619 14.4891 46.5626 14.7112 46.6635 14.913ZM43.9917 14.1762C43.9833 14.4386 43.9917 14.6708 44.0252 14.8928C44.7143 14.8222 45.4368 14.8121 46.1594 14.8625C46.067 14.6506 45.9745 14.4084 45.8989 14.146C45.252 14.0652 44.6134 14.0754 43.9833 14.1662L43.9917 14.1762ZM61.7198 12.9148C61.9131 13.7827 62.2239 14.3883 62.5348 14.6304C62.7869 14.8222 62.9969 14.7616 63.1818 14.4387C63.417 14.025 63.5179 13.601 63.4758 13.2378C63.0809 13.1369 62.644 12.9956 62.1651 12.7837C62.0139 12.8241 61.8626 12.8644 61.7114 12.9148H61.7198ZM45.63 9.04984C45.2351 9.95808 44.8067 11.048 44.3697 12.3396C44.1933 12.8442 44.0925 13.2984 44.0336 13.7121C44.6218 13.6414 45.2015 13.6313 45.7812 13.6818C45.7476 13.5506 45.7141 13.3993 45.6888 13.258C45.3612 11.6433 45.4032 10.2507 45.6384 9.04984H45.63ZM82.355 12.4405C81.7165 12.8442 81.162 13.2378 80.6747 13.6112C81.624 13.49 82.2626 13.2781 82.3971 12.8846C82.439 12.7634 82.4223 12.6122 82.3635 12.4405H82.355ZM63.8287 12.8139C64.3328 12.925 64.7782 12.9552 65.1898 12.9653C65.0134 12.9047 64.837 12.8644 64.6605 12.8241C64.3581 12.7534 64.0639 12.713 63.7783 12.6828C63.7951 12.7232 63.8119 12.7736 63.8287 12.8139ZM82.7247 12.2085C82.8256 12.4608 82.8508 12.6928 82.8172 12.9047C83.4305 12.1378 84.1531 11.4919 84.9093 10.9672C84.3463 11.27 83.733 11.613 83.0608 12.0066C82.9432 12.0772 82.8339 12.1378 82.7163 12.2085H82.7247ZM63.2489 12.6626C63.2489 12.6626 63.2658 12.6626 63.2742 12.6626H63.2489ZM61.9887 12.1681C62.0727 12.2085 62.1483 12.2387 62.2239 12.2791C62.3332 12.2589 62.4508 12.2387 62.56 12.2185C62.392 12.1782 62.1987 12.158 61.9887 12.1681ZM63.2406 3.65092C62.3751 4.84169 60.7368 7.78843 60.7284 9.99846C60.7284 10.6039 60.8544 11.0883 61.1064 11.4617C61.0224 9.56453 61.4258 7.13248 62.77 4.59953C62.9801 4.19586 63.1397 3.88296 63.2406 3.65092ZM78.6077 10.5534C78.9607 10.5635 79.3135 10.5232 79.6244 10.4324C79.6412 10.4324 79.6496 10.4324 79.6664 10.4223C79.4396 10.4324 79.2127 10.4728 78.9859 10.503C78.8598 10.5232 78.7338 10.5434 78.5994 10.5635L78.6077 10.5534ZM76.8098 9.50391C77.5407 10.2104 78.1961 10.1095 78.9355 9.98834C79.3556 9.9177 79.8093 9.84706 80.2882 9.93784C80.2965 9.80669 80.1453 9.58467 79.6917 9.32227C79.0026 8.92871 77.9608 8.42415 76.7425 8.11135C76.6333 8.65629 76.6501 9.12048 76.8098 9.50391ZM75.8351 7.91958C75.8771 8.12137 75.9527 8.31314 76.062 8.5049C76.1292 8.61591 76.188 8.71681 76.2468 8.80768C76.2468 8.57554 76.2636 8.31314 76.3224 8.02048C76.1628 7.9801 75.9948 7.94984 75.8268 7.9297L75.8351 7.91958ZM75.8015 7.41502C76.02 7.44528 76.23 7.48565 76.4485 7.52603C76.6081 7.00123 76.877 6.38565 77.2802 5.6793C77.6163 5.09398 77.944 4.56918 78.2633 4.10499C77.0955 5.0032 76.1292 6.02235 75.8603 7.0416C75.8268 7.16273 75.8099 7.29389 75.7931 7.4049L75.8015 7.41502ZM82.7584 0.805077C82.6659 0.805077 82.5651 0.805076 82.4475 0.83543C81.9686 0.926206 81.3132 1.24912 80.4814 2.06659C81.456 1.50141 82.3383 1.06748 82.8844 0.805077C82.8508 0.805077 82.8087 0.805077 82.7668 0.805077H82.7584Z" fill="#333333" stroke="#333333" stroke-width="0.8"/>
</g>
</svg>
