<svg width="141" height="102" viewBox="0 0 141 102" fill="none" xmlns="http://www.w3.org/2000/svg">
<g clip-path="url(#clip0_1_56)">
<mask id="mask0_1_56" style="mask-type:luminance" maskUnits="userSpaceOnUse" x="9" y="0" width="123" height="102">
<path d="M131.761 0.672119H9.56006V101.976H131.761V0.672119Z" fill="white"/>
</mask>
<g mask="url(#mask0_1_56)">
<path d="M44.1756 49.3077L43.6694 49.2221C44.3932 42.894 47.8755 35.0922 52.1402 30.2538C56.202 25.6429 61.5012 22.8238 67.0596 22.3157L67.1794 22.3049C67.8226 22.2461 68.5513 22.1766 69.1895 22.5323C70.0283 23.0004 70.5736 23.6556 70.8108 24.4847C71.251 26.0173 70.5394 27.7157 70.1139 28.7294C70.0088 28.9808 69.9158 29.2001 69.884 29.3231L69.3974 29.1359C69.4415 28.9674 69.5368 28.74 69.6591 28.4511C70.0479 27.5231 70.6984 25.9718 70.3291 24.688C70.1383 24.0247 69.6835 23.4898 68.9744 23.0939C68.4584 22.8051 67.8274 22.8639 67.2186 22.9227L67.0987 22.9335C61.6553 23.431 56.4686 26.1911 52.4924 30.7059C48.3059 35.4586 44.8872 43.108 44.178 49.3104L44.1756 49.3077Z" fill="#333333" stroke="#333333" stroke-width="0.7175"/>
<path d="M58.3545 60.7C54.168 60.7 49.7345 58.646 47.3991 55.3241L47.7879 54.9256C50.676 59.0311 56.9142 61.1226 61.6974 59.5821C65.7641 58.2742 69.596 55.0085 73.0831 49.876C74.3327 48.0358 75.795 45.5645 76.0029 42.7668C76.2059 40.0173 75.2693 37.1314 73.0538 33.6893C70.7771 30.1534 68.5396 28.2678 66.2116 27.9281C64.7566 27.7168 63.2893 28.1288 62.1742 28.5139C54.9505 31.0066 47.2059 39.9746 44.1614 49.3758L43.687 49.1511C46.7853 39.5895 54.6742 30.4637 62.0349 27.9228C63.1964 27.5216 64.7297 27.0937 66.2727 27.3157C68.7426 27.6767 71.0926 29.6372 73.4572 33.3094C75.7584 36.8828 76.7292 39.905 76.5116 42.8203C76.2915 45.7865 74.7753 48.3568 73.4768 50.2664C69.9212 55.5007 66.0013 58.8359 61.8294 60.1785C60.729 60.5316 59.5527 60.7 58.357 60.7H58.3545Z" fill="#333333" stroke="#333333" stroke-width="0.7175"/>
<path d="M44.1938 61.0955C43.2229 61.0955 42.3793 60.2557 41.812 59.6004C40.3691 57.9315 38.6427 55.2809 38.6036 52.1222C38.584 50.5228 39.0902 49.2229 39.9607 48.6479C41.2568 47.7893 42.9515 48.2039 44.0543 48.9956C45.3333 49.9129 46.5217 51.4241 47.3165 53.1385L47.3214 53.1492C47.9695 54.6818 47.9108 55.5243 47.7371 56.7279C47.5733 57.8645 47.0206 58.9611 46.0938 59.9909C45.7221 60.4028 45.1499 60.9645 44.4505 61.0714C44.3624 61.0848 44.2769 61.0901 44.1913 61.0901L44.1938 61.0955ZM41.5967 48.7923C41.1101 48.7923 40.6284 48.91 40.2053 49.1881C39.3812 49.7338 39.1 51.0551 39.1147 52.1115C39.1513 55.0562 40.7947 57.5651 42.1665 59.1537C42.7069 59.7796 43.5261 60.5953 44.3894 60.4643C44.8173 60.3974 45.2379 60.1113 45.7515 59.5388C46.5927 58.6027 47.094 57.6239 47.2358 56.6236C47.4045 55.4494 47.4241 54.7486 46.869 53.4355C46.1182 51.8146 44.9958 50.3891 43.7951 49.5252C43.2082 49.1026 42.3964 48.7923 41.5992 48.7923H41.5967Z" fill="#333333" stroke="#333333" stroke-width="0.7175"/>
<path d="M38.6077 54.3818C38.3412 53.0338 37.7959 51.6484 37.2677 50.3057C36.7297 48.9363 36.1721 47.5188 35.8933 46.1066C35.2062 42.6243 34.4946 39.0242 34.4384 35.36C34.3943 32.4741 34.7709 28.3178 36.825 24.897C38.1577 22.677 40.1875 20.8316 42.6964 19.5612C45.0636 18.3629 47.6215 17.7692 49.8101 17.3466C52.6101 16.8063 55.613 16.3891 58.6062 16.9962C61.6947 17.622 64.771 19.7965 66.4461 22.5353L66.0353 22.9017C64.436 20.2833 61.4868 18.2025 58.523 17.6033C55.6032 17.0122 52.6492 17.4241 49.8907 17.9564C47.7315 18.3736 45.2128 18.9567 42.8945 20.1308C40.4711 21.3585 38.5148 23.1317 37.2383 25.2607C35.2673 28.5425 34.9054 32.5597 34.9494 35.3493C35.0057 38.9466 35.71 42.5146 36.3897 45.9648C36.6563 47.3128 37.2016 48.6983 37.7298 50.0409C38.2678 51.4103 38.8254 52.8279 39.1041 54.2401L38.6077 54.3818Z" fill="#333333" stroke="#333333" stroke-width="0.7175"/>
<path d="M66.0491 68.4846H65.9561C63.2955 68.4178 60.542 68.3483 57.9083 67.4923C55.2086 66.6151 52.4306 63.3922 50.9634 60.731C49.5597 59.9393 48.2416 58.9978 47.0752 57.92L47.3857 57.4305C52.3132 61.9693 59.9624 64.0823 65.1809 62.3438C70.8738 60.4475 74.9332 50.1209 75.8844 43.7393L76.3882 43.8382C76.1045 46.133 76.1558 50.9392 76.5422 58.1179L76.552 58.2784L66.0515 68.482L66.0491 68.4846ZM51.8804 61.2177C53.4112 63.6436 55.837 66.1792 58.0428 66.8959C60.586 67.7224 63.2735 67.7973 65.8754 67.8615L76.0238 58.0002C75.7792 53.3945 75.6717 49.7651 75.7034 47.1467C74.0675 53.4694 70.3016 61.2766 65.3179 62.9375C61.4688 64.2187 56.3359 63.4671 51.8828 61.2177H51.8804Z" fill="#333333" stroke="#333333" stroke-width="0.7175"/>
<path d="M26.3648 50.4517L26.2181 50.4142C20.9654 49.0929 15.5977 48.7934 10.2668 49.5182L9.56006 49.6146L10.0565 48.9967C17.153 40.1625 27.4775 30.6943 37.6748 23.6736L37.9266 24.2085C28.0033 31.0394 17.96 40.1946 10.9173 48.8148C16.0208 48.2077 21.1488 48.5286 26.1741 49.7723C28.3529 46.7206 31.2751 43.2436 34.8626 39.4377L35.2 39.9004C31.5784 43.7465 28.639 47.2475 26.4651 50.3126L26.3673 50.4517H26.3648Z" fill="#333333" stroke="#333333" stroke-width="0.7175"/>
<path d="M27.9605 91.0664L27.6915 90.4183C25.0284 83.9782 21.8885 76.8157 18.8514 69.8885C15.8142 62.9612 12.6718 55.796 10.0088 49.3502L10.4661 49.0747C13.1291 55.5151 16.269 62.6751 19.3037 69.5996C22.2406 76.2995 25.2754 83.2213 27.8847 89.5012C29.1073 85.5269 31.4451 79.2603 33.2449 74.8151C31.6335 69.8644 30.127 64.5473 28.672 59.4013C27.8088 56.355 26.9187 53.2017 26.0286 50.2168L26.5079 50.0082C27.4004 52.9984 28.2906 56.1517 29.1538 59.2034C30.621 64.3868 32.1372 69.744 33.761 74.7161L33.8025 74.8418L33.7536 74.9649C31.8486 79.6588 29.3152 86.463 28.1609 90.384L27.9605 91.0664Z" fill="#333333" stroke="#333333" stroke-width="0.7175"/>
<path d="M44.0758 101.912C43.8483 96.9156 46.7266 88.935 49.4092 85.196L48.9104 84.4712C47.4235 82.3048 46.1902 80.6617 45.2105 79.5419L44.7532 79.0204C41.178 74.9282 38.6177 73.056 35.6465 71.3576L35.8641 70.8013C38.8818 72.5264 41.4812 74.4253 45.1053 78.5737L45.5626 79.0952C46.5587 80.2328 47.8066 81.8938 49.3065 84.078L50.0841 85.212L49.9374 85.41C47.2792 88.9676 44.3643 96.9376 44.5893 101.878L44.0807 101.912H44.0758Z" fill="#333333" stroke="#333333" stroke-width="0.7175"/>
<path d="M26.4735 101.955C25.7056 97.3042 27.3709 89.2832 30.9241 80.4969C34.4064 71.89 38.9304 64.3129 43.0263 60.2314L43.3516 60.7075C39.3705 64.6766 34.7829 72.3635 31.3838 80.7697C27.8771 89.4379 26.2265 97.3148 26.9748 101.838L26.4735 101.958V101.955Z" fill="#333333" stroke="#333333" stroke-width="0.7175"/>
<path d="M56.0506 101.976C52.9816 88.2101 46.1712 77.9072 35.8125 71.3518L36.0497 70.8062C46.5405 77.4445 53.4365 87.8781 56.5445 101.816L56.0506 101.976Z" fill="#333333" stroke="#333333" stroke-width="0.7175"/>
<path d="M62.9131 101.955C60.3772 86.6612 50.1188 70.4237 39.562 64.9915L39.7625 64.4246C50.4587 69.9289 60.8492 86.3616 63.4144 101.834L62.9131 101.955Z" fill="#333333" stroke="#333333" stroke-width="0.7175"/>
<path d="M48.8668 84.3497L48.7299 84.1491C48.6198 83.9886 48.5196 83.8495 48.4242 83.7158C48.275 83.5072 48.1331 83.312 47.9938 83.0873C47.4118 82.1512 46.7784 81.3167 46.1108 80.4341C45.9715 80.2495 45.8296 80.065 45.6902 79.8778L45.5337 79.6691L45.6926 79.4605C47.1036 77.615 48.6467 75.9033 50.2802 74.3627C49.9647 73.9802 49.6395 73.5844 49.302 73.1591L49.6713 72.7339C50.1408 73.3277 50.5884 73.8679 51.0212 74.3895C52.2121 75.8231 53.3369 77.1764 54.7895 79.5006L54.9656 79.7841L54.7089 79.9553C53.5791 80.7122 52.9579 81.2204 52.1705 81.8623C51.6815 82.2609 51.1288 82.7102 50.3658 83.2905C50.1579 83.4484 49.0991 84.1892 49.0526 84.2213L48.8644 84.3524L48.8668 84.3497ZM46.2233 79.6718C46.3113 79.7868 46.3969 79.9018 46.4849 80.0169C47.133 80.8701 47.8054 81.7553 48.4021 82.7156C48.5318 82.9241 48.6589 83.1033 48.8105 83.3093C48.8668 83.3868 48.9255 83.4697 48.9866 83.5554C49.3069 83.3306 49.9476 82.8787 50.0968 82.7663C50.8524 82.1913 51.4026 81.7446 51.8868 81.3488C52.5936 80.771 53.2122 80.2683 54.2051 79.5889C52.8601 77.4706 51.7914 76.1815 50.6617 74.8228C50.6543 74.8148 50.6495 74.8067 50.6421 74.8014C49.0722 76.275 47.5879 77.912 46.2233 79.6718Z" fill="#333333" stroke="#333333" stroke-width="0.7175"/>
<path d="M87.2893 75.3426L86.9494 74.8826C87.1573 74.6606 87.4018 74.4011 87.6781 74.1096C90.043 71.6169 94.963 66.4255 94.9015 63.545C94.8576 61.4989 93.8847 59.4341 92.011 57.4121C87.7808 52.8466 81.6967 50.8674 76.1408 52.2474L76.0381 51.643C81.7505 50.2227 88.0033 52.2554 92.3536 56.9521C94.3368 59.0917 95.3663 61.3036 95.4151 63.5289C95.4837 66.701 90.6276 71.8228 88.018 74.5751C87.7442 74.8639 87.4996 75.1233 87.2918 75.3453L87.2893 75.3426Z" fill="#333333" stroke="#333333" stroke-width="0.7175"/>
<path d="M77.6696 100.178L77.5253 99.9506C74.158 94.6528 69.8956 90.2554 65.7751 86.0028C64.6308 84.8206 63.4447 83.5983 62.293 82.3707L62.0166 82.0765L84.008 67.8315L93.2764 87.6503L77.6696 100.178ZM62.9067 82.2021C63.968 83.3282 65.0537 84.4488 66.1077 85.5347C70.1891 89.7471 74.4099 94.0988 77.7845 99.3466L92.6015 87.455L83.8124 68.6606L62.9067 82.2021Z" fill="#333333" stroke="#333333" stroke-width="0.7175"/>
<path d="M125.197 56.3145L90.6736 56.1005V55.4853L124.737 55.6966L127.983 18.4287C107.554 19.5841 86.8293 19.9666 66.376 19.5601C66.42 20.1351 66.42 20.6486 66.42 21.1114C66.42 21.681 66.42 22.1705 66.4933 22.6599L65.992 22.7696C65.9114 22.2266 65.9114 21.6864 65.9089 21.1114C65.9089 20.5471 65.9089 19.964 65.8355 19.2846L65.7988 18.9316L66.0923 18.9369C86.729 19.3515 107.644 18.9663 128.254 17.7948L128.55 17.7788L125.195 56.3145H125.197Z" fill="#333333" stroke="#333333" stroke-width="0.7175"/>
<path d="M68.8329 14.9106L68.3389 14.7529C68.554 13.7793 68.6885 12.9716 68.8083 12.2601C69.0432 10.8613 69.2461 9.65245 69.9308 7.82834L70.0018 7.64111L70.1729 7.64913C74.2151 7.81763 78.607 7.92729 82.8572 8.03428C87.1073 8.14127 91.5038 8.2536 95.5485 8.42209L95.5317 9.03728C91.4895 8.86872 87.0975 8.7591 82.8474 8.65211C78.656 8.54512 74.3252 8.43546 70.327 8.27232C69.7229 9.92521 69.5396 11.0164 69.3097 12.3831C69.1899 13.1027 69.0505 13.9184 68.8329 14.9106Z" fill="#333333" stroke="#333333" stroke-width="0.7175"/>
<path d="M126.362 18.2667C125.932 14.3269 126.516 12.9468 127.798 9.92183C127.9 9.68117 128.006 9.42705 128.118 9.16228H105.973V8.54712H128.947L128.761 8.99381C128.58 9.42977 128.411 9.82827 128.252 10.2027C126.983 13.1982 126.46 14.4366 126.868 18.1864L126.362 18.2667Z" fill="#333333" stroke="#333333" stroke-width="0.7175"/>
<path d="M100.907 15.1508L100.721 14.9716C100.487 14.7469 100.237 14.4901 99.9754 14.2227C99.0632 13.2919 98.0289 12.2355 97.0873 11.8102L96.9235 11.7353V11.524C96.9187 11.2191 96.9283 10.9249 96.9507 10.6441C96.8748 10.6681 96.7917 10.6709 96.7015 10.6441C96.2047 10.4916 95.3101 9.23459 95.3437 8.58464C95.3804 7.89727 95.537 6.9772 95.6911 6.08656C95.8405 5.21731 95.9946 4.31865 96.029 3.67407L96.5377 3.71151C96.501 4.39889 96.3445 5.31895 96.1903 6.20959C96.041 7.07884 95.8868 7.9775 95.8525 8.61941C95.8381 8.92164 96.4715 9.86848 96.7718 10.0236C97.1192 9.11421 97.2781 8.58732 97.3932 8.15403C97.4347 7.99088 97.4786 7.82505 97.5225 7.6619C97.7845 6.66695 97.9754 5.86189 98.1687 4.82949L98.6695 4.95253C98.5233 5.95016 98.2909 6.8087 98.0657 7.6405C98.0465 7.71005 98.0265 7.78225 98.0098 7.8518C97.9682 8.00693 97.9267 8.16473 97.8828 8.33055C97.64 9.26668 97.4419 10.2054 97.4299 11.3127C98.4035 11.8129 99.4083 12.8399 100.301 13.752C100.491 13.9472 100.675 14.1345 100.851 14.3083C101.382 13.5968 101.756 12.9389 101.477 12.2409C101.472 12.2274 101.467 12.2168 101.463 12.2034C101.237 11.7193 101.066 11.1764 100.954 10.5959C100.643 9.32287 100.553 8.60336 100.815 7.45863C100.905 7.05744 100.991 6.65893 101.078 6.25239C101.208 5.55699 101.37 4.87496 101.529 4.20096L102.02 4.36679C101.863 5.04881 101.734 5.65328 101.609 6.23367C101.597 6.28448 101.587 6.3353 101.578 6.38612C101.406 7.29816 101.292 8.22357 101.313 9.15167C101.323 9.59299 101.37 10.0236 101.445 10.4301C101.548 10.8527 101.763 11.5294 101.922 11.9359C102.177 12.4735 102.502 12.9282 102.886 13.2625C103.294 13.6182 103.881 13.7921 104.169 13.4203C104.331 13.2117 104.348 12.888 104.304 12.6099C104.192 12.3665 104.089 12.1018 103.989 11.8504C103.915 11.6604 103.844 11.4786 103.776 11.3234C103.756 11.2833 103.739 11.2432 103.72 11.2031C103.093 9.89521 103.069 8.60069 103.264 7.27408C103.397 6.1454 103.683 4.99265 103.989 3.86664L104.478 4.03782C104.39 4.4604 104.294 4.87496 104.199 5.2815C104.035 5.9876 103.876 6.6616 103.776 7.31421C103.624 8.58732 103.683 9.81229 104.165 10.9009C104.185 10.941 104.204 10.9838 104.224 11.0265C104.268 11.1202 104.314 11.2111 104.36 11.302C104.5 11.5802 104.644 11.8664 104.74 12.1927C104.756 12.2542 104.773 12.3184 104.786 12.3826C104.94 12.7036 105.106 12.9657 105.275 13.0111C105.456 13.062 105.526 13.0004 105.549 12.979C105.688 12.8507 105.769 12.4655 105.786 11.8343C105.808 11.0614 105.417 10.2991 105.104 9.68655L104.989 9.46189L105.153 9.29077C106.634 7.74214 108.395 6.51717 110.247 5.74422L110.413 5.67467L110.525 5.83783C110.721 6.11866 110.977 6.68835 111.251 7.29548C111.501 7.84913 111.76 8.41881 111.922 8.6515L111.53 9.04738C111.334 8.76651 111.078 8.19682 110.804 7.58969C110.604 7.14303 110.395 6.68299 110.236 6.40217C108.578 7.12431 107.002 8.22089 105.652 9.58763C105.974 10.2269 106.319 10.9972 106.295 11.8556C106.277 12.4708 106.212 13.1422 105.857 13.4711C105.668 13.6449 105.434 13.6931 105.155 13.6128C105.016 13.5728 104.888 13.4845 104.773 13.3642C104.727 13.5353 104.653 13.6985 104.544 13.8402C104.052 14.4768 103.189 14.2842 102.59 13.7627C102.391 13.5888 102.206 13.3909 102.037 13.1662C101.888 13.8723 101.419 14.4821 101.066 14.9395L100.905 15.1481L100.907 15.1508Z" fill="#333333" stroke="#333333" stroke-width="0.7175"/>
<path d="M115.079 9.06832C113.061 6.55424 108.867 1.33342 105.997 1.33342H105.975L105.97 0.718262H105.997C109.085 0.718262 113.379 6.06747 115.446 8.64043L115.079 9.06832Z" fill="#333333" stroke="#333333" stroke-width="0.7175"/>
<path d="M96.4257 3.9484L96.1445 3.43487C97.7244 2.16978 104.369 0.343035 106.021 0.722828L105.926 1.32729C104.432 0.979585 97.8633 2.79832 96.4281 3.9484H96.4257Z" fill="#333333" stroke="#333333" stroke-width="0.7175"/>
<path d="M126.484 15.8423C116.239 15.7245 105.879 15.6069 95.5172 15.4918C85.1561 15.3742 74.7926 15.2592 64.5488 15.1415L64.5537 14.5264C74.7974 14.644 85.1586 14.7617 95.5196 14.8767C105.881 14.9944 116.244 15.1094 126.488 15.2271L126.484 15.8423Z" fill="#333333" stroke="#333333" stroke-width="0.7175"/>
<path d="M65.1565 20.8935L64.6478 20.832C64.6991 20.1874 64.5842 19.0159 64.4741 17.8819C64.3543 16.6623 64.2419 15.5095 64.2981 14.8008L64.8067 14.8622C64.7554 15.5069 64.8703 16.6783 64.9804 17.8123C65.1002 19.0319 65.2127 20.1847 65.1565 20.8935Z" fill="#333333" stroke="#333333" stroke-width="0.7175"/>
<path d="M128.257 58.4381C115.089 57.7053 107.254 57.9487 94.274 58.3579L93.3372 58.3873L93.3252 57.7721L94.2621 57.7427C107.254 57.3362 115.094 57.0901 128.282 57.8257L128.257 58.4408V58.4381Z" fill="#333333" stroke="#333333" stroke-width="0.7175"/>
<path d="M128.521 58.152L128.013 58.1092C128.807 44.5329 128.384 30.4966 128.013 18.1158L128.523 18.0945C128.898 30.4939 129.321 44.5462 128.523 58.1546L128.521 58.152Z" fill="#333333" stroke="#333333" stroke-width="0.7175"/>
<path d="M103.369 80.4413C101.949 80.4413 100.596 80.2594 99.4229 79.877L99.557 79.2832C103.802 80.6686 110.456 79.326 114.085 76.3492C116.311 74.5224 118.34 72.2838 120.302 70.1174C121.573 68.7132 122.889 67.2608 124.248 65.9289C124.655 65.5331 125.07 65.1399 125.486 64.7467C127.652 62.706 129.89 60.5958 130.851 57.5735C131.316 56.1105 131.272 54.5726 131.21 52.4382C131.191 51.7161 131.166 50.895 131.162 49.9963C131.152 48.3114 130.357 46.6905 129.589 45.1205C129.218 44.361 128.833 43.5773 128.545 42.7963L129.012 42.5449C129.291 43.2937 129.651 44.0293 130.031 44.8076C130.834 46.4471 131.662 48.1402 131.675 49.991C131.68 50.8816 131.704 51.6974 131.724 52.4169C131.788 54.6208 131.834 56.2148 131.33 57.7928C130.317 60.9729 128.022 63.1393 125.802 65.2309C125.385 65.6214 124.973 66.0119 124.571 66.405C123.221 67.7263 121.913 69.1733 120.646 70.5693C118.671 72.7491 116.628 75.0065 114.374 76.8574C111.642 79.0986 107.245 80.4413 103.372 80.4413H103.369Z" fill="#333333" stroke="#333333" stroke-width="0.7175"/>
<path d="M114.136 49.8336C111.534 49.8336 108.915 48.6273 107.13 46.3833C104.294 42.8208 103.728 36.9527 105.817 32.7402C107.922 28.4876 110.257 27.6077 115.78 27.2546H115.813L115.845 27.26C120.152 28.3646 123.054 31.7694 123.609 36.367C124.201 41.2562 122.001 46.4208 118.379 48.6434C117.073 49.4458 115.606 49.8309 114.136 49.8309V49.8336ZM115.772 27.8724C109.678 28.2656 107.979 29.5735 106.254 33.0558C104.281 37.041 104.817 42.5854 107.5 45.9555C110.145 49.2773 114.723 50.1973 118.149 48.0951C121.582 45.9876 123.668 41.093 123.105 36.4552C122.582 32.1331 119.841 28.9262 115.772 27.8698V27.8724Z" fill="#333333" stroke="#333333" stroke-width="0.7175"/>
<path d="M82.3164 47.7434L82.3433 47.3824C82.8519 40.5568 83.0158 33.6215 82.8348 26.7693L82.8275 26.4643L83.0794 26.4509C87.6572 26.2075 94.5679 26.0096 101.483 26.4376L101.718 26.4537L101.726 26.7344C101.777 28.4676 101.848 30.2141 101.924 32.0596C102.124 36.9541 102.332 42.0145 102.129 46.6763L102.116 46.9732H101.872C96.1621 46.8769 88.9658 47.1577 82.6172 47.7167L82.3164 47.7434ZM83.3557 27.0554C83.522 33.7125 83.3606 40.4445 82.8789 47.0775C89.0753 46.5426 96.0423 46.2751 101.632 46.3526C101.814 41.8032 101.611 36.8686 101.415 32.0944C101.347 30.4228 101.275 28.6949 101.224 27.042C94.5312 26.6381 87.8675 26.8227 83.3533 27.0554H83.3557Z" fill="#333333" stroke="#333333" stroke-width="0.7175"/>
<path d="M98.5644 39.6818C98.2314 39.6818 97.8328 39.6738 97.574 39.6391C95.7666 39.4037 94.297 39.278 92.8785 39.1577C91.4552 39.0373 89.9808 38.9089 88.1638 38.6735C87.9046 38.6388 85.8456 38.4248 85.8236 38.4221L85.6402 38.4034L85.5962 38.1867C85.5105 37.7481 85.5619 37.0421 85.6206 36.5258C85.738 35.5201 85.9043 34.5092 86.0632 33.5303C86.2222 32.5621 86.3885 31.5591 86.5009 30.5694L86.5841 29.8875L99.229 30.0507L99.3959 37.8498C99.4031 38.2188 99.3983 39.3181 99.3983 39.3662V39.6658L99.1483 39.6738C99.1267 39.6738 98.8743 39.6818 98.5588 39.6818H98.5644ZM86.0705 37.8311C86.6012 37.8872 87.9999 38.0343 88.2201 38.0611C90.0271 38.2964 91.4967 38.4221 92.9152 38.5425C94.3385 38.6628 95.8129 38.7912 97.63 39.0266C97.9574 39.0694 98.5565 39.0667 98.8943 39.0614C98.8943 38.6976 98.8943 38.1092 98.8919 37.8658L98.7402 30.6631L87.0341 30.5133L87.0169 30.6577C86.8996 31.6634 86.7357 32.6744 86.5743 33.6506C86.4153 34.6188 86.249 35.6218 86.1366 36.6115C86.0779 37.1116 86.0583 37.5395 86.0755 37.8283L86.0705 37.8311Z" fill="#333333" stroke="#333333" stroke-width="0.7175"/>
<path d="M101.949 41.5877C99.0637 41.5556 95.706 41.5448 92.4585 41.5368C89.2086 41.5288 85.8509 41.5208 82.9629 41.486L82.9678 40.8708C85.8534 40.9029 89.211 40.9137 92.4585 40.9217C95.7084 40.9298 99.0661 40.9378 101.954 40.9725L101.949 41.5877Z" fill="#333333" stroke="#333333" stroke-width="0.7175"/>
<path d="M84.8186 46.5542C84.6156 46.5542 84.4175 46.5034 84.2684 46.3696C84.019 46.1503 83.9016 45.7492 83.9382 45.2437C83.9651 44.8933 84.0581 44.3905 84.3588 43.992C84.6523 43.6015 85.0925 43.4223 85.4788 43.5266H85.4837C86.144 43.7271 86.4399 44.6044 86.3029 45.2971C86.2124 45.7492 86.0217 46.054 85.6818 46.2841C85.474 46.4258 85.1365 46.5516 84.8186 46.5516V46.5542ZM85.2563 44.115C85.0753 44.115 84.8773 44.2246 84.7379 44.4092C84.5349 44.6793 84.4689 45.0431 84.4493 45.2999C84.4297 45.5726 84.4737 45.7866 84.5716 45.8722C84.7134 45.9979 85.1633 45.9337 85.4323 45.7492C85.6525 45.5994 85.7503 45.4442 85.8089 45.1554C85.8799 44.805 85.743 44.2434 85.3664 44.1284C85.3321 44.1204 85.2955 44.115 85.2588 44.115H85.2563Z" fill="#333333" stroke="#333333" stroke-width="0.7175"/>
<path d="M76.225 50.553L75.9486 50.0341C77.032 49.1943 78.6655 47.9239 79.2597 46.5625C79.783 45.3589 80.189 43.9387 80.5362 42.0879C80.8272 40.534 81.0815 38.7099 80.7563 36.958C80.502 35.5913 79.915 34.3583 79.3355 33.2109C78.5139 31.5874 77.5822 29.9212 76.335 28.7203C74.3836 26.848 72.486 26.4147 70.5297 27.3963L70.334 26.8266C72.4469 25.7648 74.5744 26.2409 76.6529 28.2388C77.9637 29.4986 78.9271 31.2183 79.7733 32.89C80.3479 34.0293 80.9862 35.3639 81.2576 36.8216C81.6049 38.6911 81.3407 40.6008 81.0375 42.2216C80.6805 44.1232 80.2599 45.5943 79.7146 46.846C79.0592 48.3491 77.3572 49.6731 76.2298 50.5477L76.225 50.553Z" fill="#333333" stroke="#333333" stroke-width="0.7175"/>
<path d="M63.0874 60.7322L62.4418 58.7182C59.9427 50.9137 55.3844 44.0775 49.6035 39.4664L49.8847 38.9529C55.2646 43.243 59.6028 49.4347 62.2414 56.5411C61.361 48.1241 58.7835 40.0601 54.7388 33.1008L55.157 32.7478C59.5881 40.3705 62.278 49.3036 62.9334 58.5818L63.085 60.7322H63.0874Z" fill="#333333" stroke="#333333" stroke-width="0.7175"/>
<path d="M95.6511 35.618C95.6088 35.618 95.5673 35.618 95.5257 35.618L90.9947 35.5645C90.5155 35.5591 90.0211 35.5511 89.5395 35.3799L89.4444 35.3478C89.0019 35.1954 88.2632 34.9413 88.3097 33.7404V33.7164C88.3757 33.0878 88.8354 32.6599 89.2631 32.5181C89.6888 32.3764 90.1265 32.4406 90.5131 32.4967L95.1959 33.1921C95.592 33.2509 96.0026 33.3125 96.3987 33.4836C96.5872 33.5665 96.8564 33.7136 96.9929 34.0319C97.211 34.5347 96.9538 35.1473 96.5752 35.3987C96.2765 35.5966 95.9419 35.6206 95.6535 35.6206L95.6511 35.618ZM88.8208 33.7778C88.7988 34.4465 89.097 34.5856 89.5858 34.7514L89.6864 34.7861C90.1026 34.936 90.5594 34.9413 91.0019 34.9466L95.5337 35.0002C95.7997 35.0028 96.1056 35.0055 96.3284 34.8584C96.4898 34.7514 96.6192 34.4893 96.5433 34.3154C96.5018 34.2192 96.3987 34.1362 96.2278 34.0613C95.8851 33.9116 95.5042 33.8554 95.1376 33.8019L90.454 33.1065C90.0994 33.053 89.7304 32.9996 89.4029 33.1092C89.1513 33.1948 88.8623 33.4382 88.8232 33.7778H88.8208Z" fill="#333333" stroke="#333333" stroke-width="0.7175"/>
<path d="M42.765 57.9802C42.2711 57.9802 41.76 57.6833 41.425 57.1645C41.0582 56.6001 40.6644 55.3297 40.7085 54.5353L40.7183 54.3267C40.7452 53.773 40.7648 53.4093 41.0117 52.8584C41.1927 52.4572 41.6207 52.08 41.9019 51.834C42.4202 51.3767 43.0854 51.6334 43.4351 51.8286C44.137 52.2164 44.7434 52.869 45.1444 53.6634C45.3621 54.0834 45.1811 55.3511 45.1787 55.3618C45.1078 55.8191 44.9121 56.1722 44.7385 56.4851C44.7067 56.5413 44.6749 56.6001 44.6456 56.6563C44.3619 57.1886 43.8215 57.6539 43.1979 57.9C43.0585 57.9561 42.9118 57.9802 42.765 57.9829V57.9802ZM42.5865 52.195C42.452 52.195 42.3175 52.2299 42.2051 52.3288C41.9703 52.5347 41.5839 52.8718 41.4592 53.1525C41.266 53.5832 41.2538 53.8426 41.2269 54.3641L41.2171 54.5781C41.1854 55.1505 41.4984 56.2845 41.826 56.7873C42.1293 57.2527 42.6379 57.4747 43.039 57.3142C43.5525 57.111 43.9926 56.7419 44.2152 56.3246C44.2469 56.2631 44.2812 56.2043 44.313 56.1454C44.4719 55.8566 44.6235 55.5838 44.6749 55.2494C44.7361 54.8536 44.7654 54.1342 44.7067 53.9897C44.3595 53.297 43.8312 52.73 43.2199 52.393C43.0903 52.3208 42.836 52.2004 42.5841 52.2004L42.5865 52.195Z" fill="#333333" stroke="#333333" stroke-width="0.7175"/>
<path d="M103.167 101.928C102.05 89.5396 99.035 76.68 94.6797 65.7221L95.1397 65.4546C99.519 76.474 102.549 89.4033 103.674 101.861L103.165 101.928H103.167Z" fill="#333333" stroke="#333333" stroke-width="0.7175"/>
</g>
</g>
<defs>
<clipPath id="clip0_1_56">
<rect width="123" height="102" fill="white" transform="translate(9)"/>
</clipPath>
</defs>
</svg>
