<svg width="141" height="102" viewBox="0 0 141 102" fill="none" xmlns="http://www.w3.org/2000/svg">
<path d="M71.3318 97.9057C71.3318 99.0567 71.3318 100.208 71.3472 101.373C72.4553 101.193 73.5634 101.013 74.6561 100.833C74.5176 99.7643 74.3791 98.6826 74.2405 97.6143C73.1632 97.739 72.3937 97.781 71.3318 97.9057Z" fill="#333333"/>
<path d="M71.3628 92.7929C71.3628 94.3126 71.3473 95.3419 71.3318 96.8624C72.3721 96.6659 72.8845 96.6329 74.5614 96.2243C74.5614 94.9828 74.6701 93.4954 74.6546 92.3513C73.3969 92.4817 72.605 92.6617 71.3628 92.7929Z" fill="#333333"/>
<path d="M71.3736 90.1752C71.344 90.7295 71.3145 91.0596 71.344 91.5996C72.453 91.4345 73.5472 91.2542 74.6561 91.0892C74.6561 89.5754 74.6561 88.0761 74.6561 86.5616C73.6063 86.4866 72.5565 86.4116 71.5067 86.3367C71.4623 87.6111 71.4032 88.8856 71.3588 90.16" fill="#333333"/>
<path d="M74.4355 80.3516C74.509 81.8108 74.5826 83.2552 74.6561 84.7144C73.6264 84.7591 72.5821 84.7881 71.5524 84.8328C71.4788 83.521 71.4053 82.1943 71.3318 80.8824C72.2732 80.6903 73.2146 80.5139 74.156 80.3218" fill="#333333"/>
<path d="M69.6682 75.9764C69.9958 77.3145 70.2028 78.2311 70.5304 79.57C71.5994 78.9981 72.1166 78.7726 73.8236 77.7656C73.565 76.6674 73.358 75.3293 73.0822 74.3071C71.7718 74.9086 70.9786 75.3749 69.6682 75.9764Z" fill="#333333"/>
<path d="M68.8499 74.3196C68.9599 74.9096 69.0149 75.2696 69.1983 75.8108C70.4632 75.1223 71.7281 74.4503 72.9931 73.7627C72.5897 72.1895 72.2047 70.6164 71.8015 69.0442C70.5365 69.4538 69.2715 69.8469 68.0066 70.2565C68.2816 71.6161 68.5566 72.96 68.8316 74.3196" fill="#333333"/>
<path d="M67.8049 69.0441C67.6005 67.4925 67.3791 65.9248 67.1747 64.3732C68.3669 64.1812 69.542 63.9732 70.7341 63.7812C70.9384 65.189 71.1258 66.5967 71.3301 68.0045C70.2573 68.3563 69.2014 68.6923 68.1285 69.0441" fill="#333333"/>
<path d="M67.1747 59.5615C67.1747 60.7129 67.1747 61.8642 67.194 63.0295C68.5791 62.8491 69.9643 62.6688 71.3301 62.4884C71.157 61.4204 70.9838 60.3384 70.8107 59.2703C69.464 59.3951 68.5022 59.4367 67.1747 59.5615Z" fill="#333333"/>
<path d="M67.431 54.1314C67.3395 55.759 67.2663 56.8735 67.1747 58.5186C68.4195 58.4126 69.0053 58.4303 71.0006 58.1826C71.0738 56.8381 71.2935 55.2636 71.3301 54.0076C69.8474 54.0076 68.9138 54.1314 67.431 54.1314Z" fill="#333333"/>
<path d="M68.2277 51.839C68.1171 52.2864 68.054 52.5474 68.0066 52.9947C69.1916 53.0817 70.3765 53.1687 71.5615 53.2557C71.767 52.0254 71.9724 50.7951 72.162 49.5648C71.0718 49.2914 69.9658 49.018 68.8756 48.7446C68.6544 49.7761 68.4331 50.8076 68.2119 51.839" fill="#333333"/>
<path d="M68.8384 47.461C69.0597 46.139 69.2811 44.8171 69.5025 43.4814C70.6606 43.7813 71.8357 44.0811 72.9938 44.3809C72.8064 45.5803 72.6021 46.7796 72.4148 47.9925C71.3248 47.8562 70.2348 47.72 69.1278 47.5837" fill="#333333"/>
<path d="M70.566 43.4817C68.4117 37.8122 62.1051 33.073 54.4781 31.4012C47.5808 29.8893 38.2684 30.6162 32.3267 33.1166C28.0007 34.9483 19.0011 38.7425 16.3777 43.1037L15.648 42.7984C18.4103 38.2482 27.2188 34.5122 31.9618 32.5206C38.0599 29.9475 47.6155 29.2061 54.6865 30.7471C62.6784 32.5061 69.0719 37.3033 71.3304 43.2781L70.5487 43.4817H70.566Z" fill="#333333" stroke="#333333" stroke-width="0.7"/>
<path d="M19.0995 43.4816C18.9477 42.4359 18.8392 41.0593 19.3488 39.7224L19.8043 39.9872C19.4464 40.9137 19.3814 41.933 19.5874 43.3625L19.0886 43.4684L19.0995 43.4816Z" fill="#333333" stroke="#333333" stroke-width="0.7"/>
<path d="M20.7981 42.7299C20.4069 41.5556 20.7199 39.8303 21.7499 37.467L22.2975 37.757C21.3587 39.9173 21.0459 41.5121 21.3718 42.498L20.7981 42.7299Z" fill="#333333" stroke="#333333" stroke-width="0.7"/>
<path d="M26.0372 41.9779H25.6217C25.6217 39.5319 25.6398 36.3144 27.4826 34.4595L28.1149 34.9683C26.4889 36.5935 26.4708 39.6468 26.4708 41.8794L26.0552 41.9615L26.0372 41.9779Z" fill="#333333" stroke="#333333" stroke-width="0.7"/>
<path d="M29.2245 40.4597C28.2296 38.322 30.1179 34.4973 31.458 32.9558L32.2703 33.3194C30.849 34.9627 29.3058 38.4819 30.1179 40.2561L29.2245 40.4742V40.4597Z" fill="#333333" stroke="#333333" stroke-width="0.7"/>
<path d="M36.4728 38.2186H35.595V37.9832C35.595 35.688 35.595 31.8331 38.5271 30.7002L38.9193 31.3182C36.4728 32.2598 36.4728 35.9822 36.4728 37.9832V38.2186Z" fill="#333333" stroke="#333333" stroke-width="0.7"/>
<path d="M33.1646 38.9706C33.1646 38.611 33.148 38.2678 33.1315 37.9245C33.0488 35.4729 32.9992 33.5279 35.0331 31.4521L35.5952 31.9915C33.793 33.8385 33.8426 35.5382 33.9252 37.9082C33.9252 38.2515 33.9417 38.5946 33.9582 38.9706H33.1811H33.1646Z" fill="#333333" stroke="#333333" stroke-width="0.7"/>
<path d="M23.1652 41.226C23.0207 40.1479 23.3277 38.8428 23.6166 37.5945C23.743 37.0129 23.8695 36.4596 23.9598 35.9631L24.7905 36.0341C24.7182 36.5447 24.5919 37.1264 24.4474 37.708C24.1765 38.9137 23.8875 40.1763 24.0139 41.1551L23.1652 41.226Z" fill="#333333" stroke="#333333" stroke-width="0.7"/>
<path d="M40.0696 36.7149C39.2276 34.5081 40.0201 31.6522 42.7937 30.7002L43.0743 31.3204C40.73 32.1281 40.0861 34.5946 40.8125 36.4986L40.0861 36.7149H40.0696Z" fill="#333333" stroke="#333333" stroke-width="0.7"/>
<path d="M43.3722 37.4669C42.4309 34.544 43.889 32.4654 45.4394 30.257L45.6609 29.9485L46.3991 30.3382L46.1776 30.6467C44.6641 32.7902 43.3722 34.6414 44.2028 37.2558L43.3722 37.4669Z" fill="#333333" stroke="#333333" stroke-width="0.7"/>
<path d="M49.4043 37.4668C47.7151 35.6495 50.6254 32.4731 52.0297 30.9514L52.2536 30.7002L53.0473 31.0844L52.8234 31.3355C51.643 32.6208 48.8548 35.6495 50.198 37.0678L49.4043 37.452V37.4668Z" fill="#333333" stroke="#333333" stroke-width="0.7"/>
<path d="M52.6086 38.2187C51.5023 37.0783 52.9405 34.4629 54.3788 32.0908C54.5264 31.8322 54.6739 31.6194 54.7477 31.4521L55.5405 31.741C55.4483 31.9083 55.3192 32.1212 55.1533 32.3949C54.4157 33.6266 52.4426 36.8807 53.2909 37.7626L52.6086 38.2035V38.2187Z" fill="#333333" stroke="#333333" stroke-width="0.7"/>
<path d="M55.4505 38.2187C54.5069 37.6475 54.6768 36.8452 54.8278 36.138C55.2052 34.4246 57.1301 33.3366 60.395 32.9558L60.5272 33.5814C58.5455 33.8125 56.0922 34.4518 55.6959 36.2332C55.5449 36.954 55.4694 37.4028 55.9978 37.7291L55.4316 38.2187H55.4505Z" fill="#333333" stroke="#333333" stroke-width="0.7"/>
<path d="M57.7429 38.2186L57.203 37.7848C58.6591 36.6411 60.2296 35.5106 62.1601 35.2608C63.2234 35.1162 63.747 35.3134 64.3686 35.5237C64.6795 35.6289 65.0231 35.7604 65.5138 35.8655L65.3175 36.4571C64.7777 36.3387 64.4013 36.2073 64.0578 36.0889C63.5016 35.8918 63.1253 35.7604 62.2909 35.8655C60.5895 36.0889 59.1008 37.1537 57.7429 38.2186Z" fill="#333333" stroke="#333333" stroke-width="0.7"/>
<path d="M63.7081 41.2261L63.0207 41.0294C63.5096 39.5819 65.3429 38.3171 67.1303 38.2188L67.1761 38.8792C65.847 38.9495 64.1512 39.9051 63.7081 41.2261Z" fill="#333333" stroke="#333333" stroke-width="0.7"/>
<path d="M65.2769 41.9779L64.6833 41.3883L65.0471 41.1019C66.0047 40.3269 67.211 39.3667 68.8388 39.8552L68.5515 40.5965C67.4217 40.2595 66.5599 40.9503 65.6599 41.6748L65.2769 41.9779Z" fill="#333333" stroke="#333333" stroke-width="0.7"/>
<path d="M70.711 41.9781L69.9296 41.859C71.4583 34.1176 70.0486 27.3141 65.1906 19.1261C62.167 14.0198 57.4959 9.82155 54.1157 7.20134C52.0434 5.60844 49.5804 4.34301 47.1854 3.12224C46.6928 2.86913 46.2341 2.70536 45.7246 2.51189C44.8923 2.19923 44.026 1.88658 43.3805 1.35067L43.0748 1.09757L43.3805 0.844467C43.7712 0.517001 44.0769 0.621141 44.3148 0.755136C44.3657 0.784913 44.3827 0.799802 44.4167 0.799802L44.3317 1.12735C44.8244 1.42512 45.4188 1.64836 46.0474 1.88658C46.5399 2.06524 47.0665 2.25879 47.5251 2.497C50.022 3.76236 52.519 5.04268 54.6592 6.68033C58.0904 9.33023 62.8295 13.6029 65.9209 18.7985C70.8638 27.1354 72.2907 34.0581 70.728 41.9632L70.711 41.9781Z" fill="#333333" stroke="#333333" stroke-width="0.7"/>
<path d="M40.9084 8.12938L40.5808 7.4751C41.2359 7.17908 41.9073 6.82083 42.5624 6.47807C45.0024 5.18501 47.5078 3.84522 50.5538 4.60864L50.3573 5.30965C47.6225 4.62422 45.3462 5.83929 42.9226 7.11676C42.2676 7.45952 41.5798 7.83344 40.9084 8.14496V8.12938Z" fill="#333333" stroke="#333333" stroke-width="0.7"/>
<path d="M43.6323 10.4002L43.0748 9.93769C44.7634 8.14705 50.3713 4.40176 53.0477 6.52063L52.5698 7.05777C50.435 5.35674 45.2733 8.66934 43.6483 10.4002H43.6323Z" fill="#333333" stroke="#333333" stroke-width="0.7"/>
<path d="M48.6853 11.9043L48.0606 11.4848C49.4143 10.1699 53.1281 8.89697 55.5403 8.89697V9.55445C53.3536 9.55445 49.8828 10.7433 48.6853 11.9043Z" fill="#333333" stroke="#333333" stroke-width="0.7"/>
<path d="M50.6476 15.6632C50.4968 15.3446 50.5345 14.9924 50.723 14.657C51.5525 13.1981 55.5679 12.0912 58.999 11.2695L59.4515 11.1521L59.6965 11.9068L59.2252 12.0242C54.6065 13.131 52.0238 14.1372 51.5148 15.0092C51.4395 15.1433 51.4395 15.244 51.4772 15.3614L50.6665 15.6465L50.6476 15.6632Z" fill="#333333" stroke="#333333" stroke-width="0.7"/>
<path d="M52.0336 17.9189L51.3854 17.5012C53.6182 15.4267 59.1823 14.1597 62.1894 14.1597V14.814C59.4164 14.814 54.0684 16.0254 52.0336 17.9189Z" fill="#333333" stroke="#333333" stroke-width="0.7"/>
<path d="M55.1934 19.4078L54.7096 18.8318C58.3378 16.9415 61.7056 16.661 64.6826 17.99L64.2547 18.5955C61.5382 17.3846 58.5611 17.6652 55.1748 19.4225L55.1934 19.4078Z" fill="#333333" stroke="#333333" stroke-width="0.7"/>
<path d="M60.1237 24.6852L59.6965 24.1144C60.6437 23.7246 61.2937 23.2094 61.9251 22.7082C62.9651 21.8867 64.0423 21.0513 66.2708 20.926L66.3451 21.5805C64.4509 21.6919 63.5779 22.3741 62.5565 23.1677C61.8694 23.6967 61.1822 24.2537 60.1051 24.6852H60.1237Z" fill="#333333" stroke="#333333" stroke-width="0.7"/>
<path d="M62.1802 29.1966L61.3581 29.0843C61.9121 25.8444 65.5581 23.9838 67.685 23.1819L68.0067 23.8716C66.0407 24.6254 62.6628 26.3095 62.1802 29.1966Z" fill="#333333" stroke="#333333" stroke-width="0.7"/>
<path d="M67.1173 33.7076L66.345 33.5938C66.3786 33.3948 67.302 28.802 69.2327 27.6929L69.6693 28.2475C68.4437 28.9584 67.4699 31.9018 67.1173 33.6934V33.7076Z" fill="#333333" stroke="#333333" stroke-width="0.7"/>
<path d="M71.2719 40.474L70.5 40.2927C71.1175 38.2387 71.0317 36.4717 70.9631 34.5988C70.9116 33.2547 70.843 31.8501 71.066 30.3246C71.6492 26.2166 74.1536 22.7579 78.9221 19.4503C83.7078 16.1428 90.0201 14.5871 95.5776 13.3789C99.4537 12.5331 103.005 12.2612 107.259 11.9743C108.168 11.9139 109.18 11.8837 110.261 11.8686C114.12 11.778 118.906 11.6723 121.496 9.64844L122.027 10.177C119.214 12.367 114.257 12.4727 110.277 12.5633C109.214 12.5935 108.202 12.6086 107.31 12.6691C103.108 12.9409 99.5741 13.2278 95.7664 14.0435C90.3116 15.2214 84.0851 16.762 79.4195 19.9941C74.8225 23.1809 72.4211 26.4733 71.8551 30.4001C71.6492 31.8652 71.7007 33.2396 71.7693 34.5535C71.8551 36.3962 71.9237 38.2991 71.289 40.4589L71.2719 40.474Z" fill="#333333" stroke="#333333" stroke-width="0.7"/>
<path d="M82.4898 24.6855C79.4265 22.6651 76.4822 22.5662 73.47 24.3887L72.9934 23.8518C76.278 21.8597 79.6307 21.9586 82.9664 24.1627L82.4728 24.6855H82.4898Z" fill="#333333" stroke="#333333" stroke-width="0.7"/>
<path d="M90.5759 21.6636C89.8387 20.6509 88.189 19.9023 85.9775 19.55C82.8535 19.051 79.3434 19.4473 77.6409 20.5187L77.1495 19.9757C79.0099 18.8162 82.7833 18.3612 86.1179 18.8896C88.5751 19.2858 90.4004 20.1518 91.2779 21.326L90.5759 21.6783V21.6636Z" fill="#333333" stroke="#333333" stroke-width="0.7"/>
<path d="M94.6794 19.4227C93.1188 17.4597 91.1359 17.3213 88.1252 17.1325C87.5561 17.0948 86.9319 17.057 86.2894 16.9941L86.3996 16.4153C87.0421 16.4656 87.6296 16.5034 88.1986 16.5411C91.2461 16.7425 93.651 16.8934 95.4313 19.1458L94.6794 19.4227Z" fill="#333333" stroke="#333333" stroke-width="0.7"/>
<path d="M100.578 17.904C98.8145 15.5267 95.9609 15.2741 92.9385 15.0066C92.3847 14.962 91.8131 14.9174 91.2762 14.8431L91.377 14.1597C91.914 14.2191 92.4687 14.2637 93.0224 14.3231C96.0949 14.5906 99.2852 14.8728 101.249 17.5325L100.595 17.9189L100.578 17.904Z" fill="#333333" stroke="#333333" stroke-width="0.7"/>
<path d="M108.11 17.919C106.594 15.7588 103.482 14.8693 100.418 14.1228L100.597 13.408C103.791 14.1704 107.066 15.1235 108.729 17.5061L108.094 17.919H108.11Z" fill="#333333" stroke="#333333" stroke-width="0.7"/>
<path d="M117.285 17.1672C114.267 14.9771 111.661 13.8906 107.9 12.6513L108.232 11.9043C112.073 13.1606 114.757 14.2811 117.873 16.5561L117.285 17.1672Z" fill="#333333" stroke="#333333" stroke-width="0.7"/>
<path d="M124.864 14.9117C122.307 13.388 120.308 12.5459 117.039 12.5325V11.9043C120.534 11.931 122.655 12.8132 125.35 14.4172L124.846 14.9117H124.864Z" fill="#333333" stroke="#333333" stroke-width="0.7"/>
<path d="M70.3672 42.7296L69.6682 42.396C71.0322 40.1519 72.7372 37.65 75.7209 36.2095C77.5623 35.33 80.1708 34.7538 83.5126 34.5111C86.5475 34.2838 89.5653 34.3141 92.4804 34.3293C96.6407 34.3596 100.938 34.3899 105.268 33.7075L105.405 34.4051C101.006 35.0874 96.6751 35.0722 92.4804 35.0419C89.5823 35.0267 86.5816 35.0116 83.5808 35.2239C80.3584 35.4513 77.8521 35.9972 76.113 36.8311C73.3169 38.1655 71.6971 40.5765 70.3843 42.7296H70.3672Z" fill="#333333" stroke="#333333" stroke-width="0.7"/>
<path d="M76.3462 44.2333C75.3909 42.7 73.213 41.5788 70.5 41.2326L70.6336 40.4741C72.0666 40.6555 75.582 41.348 77.1486 43.8707L76.3653 44.2333H76.3462Z" fill="#333333" stroke="#333333" stroke-width="0.7"/>
<path d="M81.5439 41.9781C79.5021 40.0936 75.2666 39.7967 72.1616 39.5773L72.2291 38.9707C75.469 39.203 79.8903 39.5128 82.1346 41.5779L81.5271 41.9652L81.5439 41.9781Z" fill="#333333" stroke="#333333" stroke-width="0.7"/>
<path d="M85.5087 41.226C83.8683 38.5868 80.9045 37.8326 77.7727 37.0471C77.288 36.9214 76.8034 36.7958 76.3187 36.6701L76.5797 35.9631C77.0644 36.0888 77.549 36.2145 78.0337 36.3402C81.2026 37.1414 84.4835 37.974 86.2917 40.8805L85.5274 41.226H85.5087Z" fill="#333333" stroke="#333333" stroke-width="0.7"/>
<path d="M93.0758 39.7222C91.7357 37.4742 88.0893 36.4618 85.4606 35.8812L85.6471 35.2112C88.4116 35.8216 92.2782 36.9085 93.7714 39.3947L93.0758 39.7222Z" fill="#333333" stroke="#333333" stroke-width="0.7"/>
<path d="M100.074 40.4741C99.9014 40.3618 99.7136 40.2636 99.5411 40.1653C98.8349 39.7583 98.1718 39.3934 97.5232 38.7618C96.0964 37.4006 95.0445 36.8672 93.3003 35.969L92.9399 35.7866L93.2573 35.2112L93.6177 35.3936C95.3611 36.2778 96.5142 36.8672 97.9985 38.2987C98.5896 38.8741 99.2236 39.225 99.8868 39.6039C100.06 39.7021 100.247 39.8144 100.42 39.9127L100.074 40.4741Z" fill="#333333" stroke="#333333" stroke-width="0.7"/>
<path d="M109.09 38.9704C106.833 37.6182 104.726 36.7528 102.082 35.7927L102.402 35.2112C105.029 36.1577 107.254 37.0773 109.562 38.4566L109.09 38.9704Z" fill="#333333" stroke="#333333" stroke-width="0.7"/>
</svg>
